<?xml version="1.0" standalone="no"?>
<!DOCTYPE svg PUBLIC "-//W3C//DTD SVG 1.1//EN" "http://www.w3.org/Graphics/SVG/1.1/DTD/svg11.dtd" >
<svg xmlns="http://www.w3.org/2000/svg">
<metadata>
This is a custom SVG webfont generated by Font Squirrel.
Copyright   :  1989 2001 2002 Adobe Systems Incorporated All rights reserved
Designer    : Carol Twombly
Foundry     : Adobe Systems Incorporated
Foundry URL : httpwwwadobecomtype
</metadata>
<defs>
<font id="CharlemagneStdBold" horiz-adv-x="1458" >
<font-face units-per-em="2048" ascent="1442" descent="-606" />
<missing-glyph horiz-adv-x="512" />
<glyph unicode=" "  horiz-adv-x="512" />
<glyph unicode="&#x09;" horiz-adv-x="512" />
<glyph unicode="&#xa0;" horiz-adv-x="512" />
<glyph unicode="!" horiz-adv-x="737" d="M221 188l219 27l13 -217l-226 -29zM236 1417q152 14 282 35q-23 -106 -83 -519t-68 -536l-82 -24q2 106 -15.5 526t-33.5 518z" />
<glyph unicode="&#x22;" horiz-adv-x="581" d="M51 1489l201 -23q-49 -326 -70 -495l-61 -13q-29 300 -70 531zM328 1489l202 -23q-49 -326 -69 -495l-64 -13q-28 300 -69 531z" />
<glyph unicode="#" horiz-adv-x="1126" d="M72 561l16 125h242q10 96 16 207q-113 -6 -262 -23l16 125h252q18 301 21 353l139 10q-23 -139 -47 -363h223q18 301 21 353l139 10q-23 -139 -47 -363h254l-17 -104q-137 10 -247 10q-6 -68 -19 -215h272l-16 -104q-111 10 -262 10q-16 -231 -21 -408l-139 -8 q16 104 51 416q-104 0 -227 -6q-18 -328 -20 -402l-140 -8q23 139 49 406q-157 -11 -247 -21zM436 686h230q8 74 18 215q-147 0 -229 -4q-7 -68 -19 -211z" />
<glyph unicode="$" horiz-adv-x="1087" d="M86 -27q8 68 17.5 232t5.5 213l47 -6q0 -10 1 -36t3 -61.5t2 -56.5q66 -100 172 -131l59 596q-111 70 -167 146.5t-56 199.5q0 113 68.5 207t214.5 129l12 334l90 14q-18 -123 -33 -336q43 4 109 0l24 322l99 14q-25 -94 -56 -344q68 -10 154 -41q6 20 16 72l50 6 q-31 -154 -31 -404l-47 17v123q-12 43 -58.5 90t-89.5 59l-47 -530q254 -147 254 -387q0 -137 -89 -238.5t-235 -130.5l-20 -362l-94 -19q4 35 13 103.5t17.5 134t18.5 135.5q-61 -8 -117 0l-39 -354l-98 -19q35 137 66 377q-117 14 -168 51q-4 -16 -10.5 -50t-10.5 -58z M303 1141q0 -133 109 -197l34 397q-53 -12 -98 -69t-45 -131zM399 109q72 -8 113 0l51 518l-106 59zM475 899l109 -57l45 510q-76 14 -111 2zM582 119q68 14 121 77.5t53 151.5q0 152 -127 238z" />
<glyph unicode="%" horiz-adv-x="1566" d="M102 1079.5q0 147.5 98.5 251t245.5 103.5q152 0 230 -78t78 -223q0 -147 -102.5 -252t-241.5 -105q-147 0 -227.5 78t-80.5 225.5zM258 1130q0 -37 7 -79.5t24.5 -95t56.5 -86t92 -33.5q57 0 108.5 59t51.5 186q0 33 -6 75t-23.5 96.5t-55.5 90t-91 35.5 q-68 0 -116 -60.5t-48 -187.5zM297 -12q55 74 502 860q12 23 107 185.5t156.5 273t63.5 127.5l162 4q-47 -53 -193.5 -289t-236.5 -395q-229 -399 -397 -754zM813 303.5q0 145.5 98.5 248.5t245.5 103q150 0 228.5 -76.5t78.5 -224.5q0 -150 -101 -252t-243 -102 q-145 0 -226 79t-81 224.5zM969 354q0 -33 7 -75.5t24.5 -96t57.5 -88.5t93 -35q55 0 106.5 60.5t51.5 187.5q0 29 -6.5 70t-22.5 95t-55 91t-92 37q-68 0 -116 -59.5t-48 -186.5z" />
<glyph unicode="&#x26;" horiz-adv-x="1667" d="M129 334q0 145 109.5 253.5t257.5 164.5q-229 213 -230 378q0 139 129 237.5t312 98.5q184 0 288.5 -87t104.5 -201q0 -102 -99.5 -208t-261.5 -192q137 -150 445 -463q45 72 75.5 193t18.5 203q-51 10 -158 22l-14 43q139 -8 264 -8q197 0 250 8l-14 -43 q-102 -10 -152 -22q-35 -225 -213 -449q209 -215 311 -295l-98 -24q-45 23 -96 56.5t-119 83.5t-96 71q-207 -186 -514 -187q-211 0 -355.5 104.5t-144.5 262.5zM365 410q0 -150 106.5 -246t249.5 -96q221 0 360 139q-201 154 -540 498q-82 -45 -129 -127t-47 -168z M467 1178q0 -125 219 -349q217 127 217 322q0 113 -70.5 178.5t-162.5 65.5t-147.5 -57.5t-55.5 -159.5z" />
<glyph unicode="'" horiz-adv-x="303" d="M51 1489l201 -23q-49 -326 -70 -495l-61 -13q-29 300 -70 531z" />
<glyph unicode="(" horiz-adv-x="716" d="M156 530q0 254 87 503t296 560l94 13q-104 -152 -195.5 -400t-91.5 -551q0 -547 262 -913l-88 -14q-41 37 -94 102.5t-117.5 169.5t-108.5 245.5t-44 284.5z" />
<glyph unicode=")" horiz-adv-x="716" d="M84 -272q104 152 195.5 399.5t91.5 550.5q0 547 -262 913l88 15q41 -37 94 -102.5t117.5 -170t108.5 -246t44 -284.5q0 -254 -87 -503t-296 -560z" />
<glyph unicode="*" horiz-adv-x="839" d="M137 1217l60 198q125 -119 209 -170q-4 16 -95 256l205 21q-16 -55 -50 -152.5t-38 -120.5l4 -4q117 117 172 187l98 -183q-197 -10 -262 -22q55 -41 234 -127l-150 -154q-35 109 -104 264q-27 -82 -45 -262l-197 96q160 123 221 181q-98 4 -262 -8z" />
<glyph unicode="+" horiz-adv-x="1249" d="M154 625l16 129h399q2 139 -8 415l139 17q-23 -197 -28 -432h424l-17 -109q-145 12 -409 8q-2 -184 10 -424l-139 -22q20 180 26 446q-210 -5 -413 -28z" />
<glyph unicode="," horiz-adv-x="655" d="M205 180l241 23q18 -326 -77 -561l-62 -9q63 240 6 338l-104 -4z" />
<glyph unicode="-" horiz-adv-x="921" d="M143 653l17 166h618l-26 -98q-82 0 -293.5 -22.5t-315.5 -45.5z" />
<glyph unicode="." horiz-adv-x="655" d="M205 188l237 45l11 -219l-242 -45z" />
<glyph unicode="/" horiz-adv-x="1003" d="M8 -12q51 68 502 860q12 23 107.5 185.5t157 273t63.5 127.5l159 2q-43 -47 -185 -280.5t-239 -401.5q-229 -399 -397 -754z" />
<glyph unicode="0" horiz-adv-x="1384" d="M113 670q0 336 173 566t423 230q270 0 421 -202q141 -190 142 -498q0 -336 -174 -567.5t-424 -231.5q-260 0 -410 189q-151 190 -151 514zM344 782q0 -117 18.5 -236.5t59.5 -236t116.5 -190.5t178.5 -74q86 0 151.5 56.5t101.5 149.5t53 194.5t17 205.5q0 119 -18 239 t-58 236.5t-117 189.5t-179 73q-86 0 -151.5 -56.5t-101.5 -148.5t-53.5 -194t-17.5 -208z" />
<glyph unicode="1" horiz-adv-x="948" d="M43 1300q49 12 598 187q-25 -246 -25 -674v-88q0 -592 11 -659q31 -6 288 -31l11 -43q-106 8 -428 8q-342 0 -453 -8l8 43q14 0 157.5 14t170.5 17q10 111 10 620v137q0 362 -10 477q-43 -2 -324 -43z" />
<glyph unicode="2" horiz-adv-x="1183" d="M-14 0q283 199 446 358q301 295 301 580q0 221 -104.5 329.5t-229.5 108.5q-129 0 -190 -53q-18 -82 -47 -250l-49 -10q43 270 43 520l47 -14q6 -82 14 -131q53 14 100 20q51 8 125 8q250 0 389.5 -111.5t139.5 -303.5q0 -299 -369 -658q-100 -100 -305 -248v-4l213 6 q133 4 265 26t167 50q39 119 53 199l49 10q-4 -33 -11 -88t-17 -132t-17 -122q-12 -102 -24 -256l-45 14q-4 82 -10 146q-223 6 -496 6h-438z" />
<glyph unicode="3" horiz-adv-x="1189" d="M119 -106q37 188 33 471l47 -21q-2 -49 8 -176q80 -121 278 -121q139 0 240.5 102.5t101.5 241.5q0 160 -126 263.5t-332 152.5q59 61 199.5 218t213.5 249h-303q-150 0 -225 -27q-18 -41 -37 -137l-49 -12q4 27 45 483l43 -14q0 -31 4 -125q84 -8 311 -8h463 q-51 -59 -228 -254t-222 -250q219 -57 343 -165t124 -251q0 -205 -183 -379q-180 -168 -471 -168q-135 0 -202 23q-16 -27 -29 -90z" />
<glyph unicode="4" horiz-adv-x="1302" d="M-29 430q131 141 506 569t475 539q-18 -137 -18 -885v-92q158 0 217 35q12 35 29.5 120t19.5 91l47 4q-2 -8 -11 -71.5t-14 -112.5t-10.5 -146.5t-3.5 -204.5l-47 11q-4 100 -14 133q-57 10 -213 10v-68q0 -223 10 -299q76 -14 221 -28l11 -43q-90 8 -375 8 q-272 0 -383 -8l8 43q113 14 297 28q10 98 10 293v74h-762zM197 561h536v615q-33 -39 -136 -155t-209.5 -238t-190.5 -222z" />
<glyph unicode="5" horiz-adv-x="1179" d="M82 -106q33 186 33 468l47 -18q0 -115 8 -180q82 -119 258 -119q141 0 250.5 95.5t109.5 267.5q0 186 -180 311q-139 96 -409 143l59 572h287q315 0 385 34q23 74 33 111l47 6q-49 -248 -70 -518l-47 14v172q-82 18 -352 19h-213l-39 -250q348 -55 520 -164 q92 -59 149.5 -145t57.5 -181q0 -223 -187.5 -394t-453.5 -171q-145 0 -221 21q-10 -25 -27 -86z" />
<glyph unicode="6" horiz-adv-x="1292" d="M129 449q0 289 196.5 575.5t522.5 501.5l110 4q-106 -84 -200 -183.5t-188.5 -229.5t-149.5 -286.5t-55 -316.5q0 -227 90 -348t217 -121q121 0 191.5 82t70.5 233q0 188 -106.5 296t-278.5 118l29 47q78 8 157.5 8t157.5 -26.5t138.5 -68.5t97 -116.5t36.5 -173.5 q0 -178 -149.5 -327.5t-394.5 -149.5q-225 0 -358.5 123t-133.5 359z" />
<glyph unicode="7" horiz-adv-x="1097" d="M100 1006q45 328 56 579l47 -10q0 -70 6 -125q55 -16 448 -16q362 0 445 2q-18 -47 -152.5 -322.5t-197.5 -427.5q-82 -199 -142.5 -379t-66.5 -241q20 -2 104 -15.5t101 -15.5l8 -43q-152 8 -336 8q-104 0 -305 -8l12 43q145 16 186 31q27 76 130.5 291.5t187.5 371.5 q258 479 276 522h-97h-103h-99q-59 0 -97 -1t-87 -2t-81 -4t-63.5 -7t-51 -9t-29.5 -11q-14 -37 -49 -195z" />
<glyph unicode="8" horiz-adv-x="1259" d="M113 315q0 262 356 435q-178 94 -234.5 177t-56.5 191q0 125 130 236.5t362 111.5q115 0 199.5 -27.5t127.5 -71.5t62.5 -90t19.5 -95q0 -229 -327 -367q381 -166 381 -416q0 -188 -155 -310t-386 -122q-236 0 -357.5 108.5t-121.5 239.5zM332 358q0 -143 88 -230 t215 -87q121 0 198.5 72.5t77.5 191.5q0 115 -76.5 210t-310.5 196q-90 -72 -141 -151t-51 -202zM375 1178q0 -51 19.5 -96.5t44 -75t71.5 -62.5t76.5 -48t87.5 -44q86 39 141 114.5t55 180.5q0 129 -76.5 188.5t-172.5 59.5q-111 0 -178.5 -62.5t-67.5 -154.5z" />
<glyph unicode="9" horiz-adv-x="1290" d="M117 989q0 174 148.5 325.5t404.5 151.5q211 0 346 -120.5t135 -354.5q0 -258 -182.5 -545.5t-452.5 -527.5l-113 -4q498 539 498 1020q0 221 -86 338t-203 117q-119 0 -194.5 -87.5t-75.5 -254.5q0 -172 110.5 -274.5t284.5 -92.5l-28 -47q-98 -31 -204 -19.5t-192 48 t-141 122.5t-55 205z" />
<glyph unicode=":" horiz-adv-x="655" d="M205 186l237 45l11 -219l-242 -45zM205 788l237 46l11 -220l-242 -45z" />
<glyph unicode=";" horiz-adv-x="655" d="M205 180l241 23q18 -326 -77 -561l-62 -9q63 240 6 338l-104 -4zM205 788l233 46l11 -220l-238 -45z" />
<glyph unicode="&#x3c;" horiz-adv-x="1249" d="M154 696v4q455 231 905 480l26 -109q-432 -225 -739 -366q406 -180 754 -343l-53 -143q-141 82 -487.5 263t-405.5 214z" />
<glyph unicode="=" horiz-adv-x="1249" d="M154 465l16 129h440h486l-17 -109q-154 12 -469 9q-268 -6 -456 -29zM154 776l16 129h440h486l-17 -108q-154 12 -469 8q-268 -6 -456 -29z" />
<glyph unicode="&#x3e;" horiz-adv-x="1249" d="M160 1036l53 144q143 -82 499.5 -269.5t393.5 -208.5v-4q-401 -203 -905 -479l-27 109q432 225 739 366q-405 180 -753 342z" />
<glyph unicode="?" horiz-adv-x="1249" d="M190 1042q37 295 37 621l47 -16q4 -164 11 -224q143 43 295 43q258 0 385 -84t127 -208q0 -195 -246 -381q-45 -35 -114.5 -74t-86.5 -49q-10 -18 -20.5 -59.5t-17.5 -77t-18 -98t-18 -93.5l-86 -20q-6 61 -24.5 171.5t-24.5 151.5q147 66 238 133q72 53 110.5 119 t46 109t7.5 102q0 104 -70 196.5t-201 92.5q-102 0 -175 -46t-109 -102q-23 -57 -45 -192zM424 164l227 33l13 -201l-238 -29z" />
<glyph unicode="@" horiz-adv-x="1820" d="M90 547q0 381 254 637t635 256q315 0 533.5 -183.5t218.5 -459.5q0 -258 -164 -418t-422 -152q0 61 -12 127q-162 -135 -283 -135q-127 0 -186.5 57.5t-59.5 133.5q0 68 39 115.5t113.5 73.5t151.5 38t182 18q-2 25 -15 97q-31 201 -155 200q-61 0 -150 -47 q-12 -45 -27.5 -99t-19.5 -67l-43 -8q33 215 33 373l43 -2q2 -29 16 -129q104 49 176 49q117 0 182.5 -62.5t79.5 -156.5q12 -74 34 -221.5t32 -198.5t51 -51q121 0 202 112.5t81 313.5q0 260 -183.5 432t-431.5 172q-348 0 -549.5 -209t-201.5 -555q0 -326 191.5 -520.5 t461.5 -194.5q231 0 463 148l31 -51q-127 -88 -265.5 -136.5t-248.5 -48.5q-156 0 -293.5 44t-250 131t-178 235.5t-65.5 341.5zM762 418q0 -51 41 -80t112 -29q80 0 209 113q-8 55 -22 172q-195 -25 -267.5 -60.5t-72.5 -115.5z" />
<glyph unicode="A" d="M-113 -8l7 43q88 8 176 28q78 137 510 1309q-43 12 -162 27l-2 43q123 -8 266 -8q231 0 350 8l-6 -43q-96 -10 -156 -27q37 -131 215 -627q178 -489 279 -682q63 -12 180 -28l6 -43q-49 8 -340 8q-236 0 -346 -8l10 43q129 10 207 28q-195 565 -215 601q-66 0 -244 -9.5 t-229 -17.5q-14 -35 -71.5 -253t-71.5 -321q57 -16 176 -28l8 -43q-127 8 -309 8q-144 0 -238 -8zM422 733l430 -8q-14 43 -101 295t-108 317h-4q-27 -74 -78 -215t-91 -250.5t-48 -138.5z" />
<glyph unicode="B" horiz-adv-x="1398" d="M98 -8l8 43q162 14 213 28q14 141 15 627v129q0 403 -15 551q-55 10 -210 21l-11 43q541 16 588 16q141 0 239.5 -26.5t142.5 -71.5t61.5 -85t17.5 -83q0 -106 -53 -193q-88 -139 -265 -213v-6q166 -27 293 -134.5t127 -260.5q0 -176 -132 -284.5t-345 -108.5 q-25 0 -172 8q-143 8 -190 8q-193 0 -312 -8zM555 600q0 -133 8 -310t17 -198q61 -43 163 -43q139 0 208 68.5t69 181.5q0 102 -61.5 205.5t-161.5 157.5q-57 29 -128 41q-48 9 -84 10q-16 0 -30 -2v-111zM555 772q152 0 246 70q119 86 119 258q0 133 -76 214t-201 81 q-53 0 -82 -13q-6 -31 -6 -495v-115z" />
<glyph unicode="C" horiz-adv-x="1656" d="M113 684q0 201 89 357.5t234 254.5q147 100 290.5 135t320.5 35q242 0 428 -53q6 12 15 51t17.5 82t10.5 49l47 11q-41 -305 -45 -633l-47 14q0 100 -13 170q-35 80 -174 159t-319 79q-272 0 -440.5 -171t-168.5 -419q0 -303 220.5 -520t541.5 -217q299 0 486 110 l-29 -88q-49 -41 -206 -82t-370 -41q-283 0 -464 90q-199 98 -311.5 264t-112.5 363z" />
<glyph unicode="D" horiz-adv-x="1925" d="M98 -8l8 43q139 8 213 28q14 49 15 637v162q0 451 -15 508q-96 18 -217 29l-4 43q61 -8 338 -8q25 0 204 4t269 4q383 0 578 -94q170 -82 253 -214.5t83 -281.5q0 -168 -67.5 -317.5t-200 -272.5t-353.5 -194.5t-506 -71.5q-500 0 -598 -4zM567 682q0 -440 15 -569 q96 -37 223 -37q201 0 372 73.5t282.5 228t111.5 363.5q0 307 -223 473q-104 78 -265 115t-321 37q-115 0 -180 -12q-4 -20 -9.5 -262t-5.5 -330v-80z" />
<glyph unicode="E" horiz-adv-x="1304" d="M98 -8l11 43q133 8 210 28q14 63 15 639v95q0 463 -15 573q-25 4 -213 29l-8 43q49 -2 185 -6q37 0 98 -1t82 -1q547 0 602 14q10 41 16 96l47 8q-18 -78 -41 -424l-45 15v147q-25 39 -185.5 62.5t-274.5 23.5q-14 -68 -15 -545v-40q336 0 424 32q14 41 21 88l43 4 q-2 -18 -24.5 -183t-29.5 -200l-38 17q4 86 4 137q-88 45 -400 45v-41q0 -492 15 -631q369 0 491 70q12 41 27.5 105.5t17.5 74.5l47 13q-10 -45 -35.5 -221.5t-31.5 -252.5l-43 9q0 92 -2 125q-106 18 -643 18q-152 0 -312 -8z" />
<glyph unicode="F" horiz-adv-x="1302" d="M98 -8l8 43q6 2 51.5 5t93.5 9t73 14q10 78 10 609v127q0 475 -10 571q-18 8 -218 29l-8 43q143 -8 359 -8q606 0 649 12q14 59 27 145l47 11q-31 -174 -35 -504l-47 16q0 96 -11 162q-49 45 -219 70.5t-284 25.5q-16 -45 -17 -549v-45q340 0 432 29q8 27 29 121l43 6 q-27 -209 -33 -457l-43 12q0 72 -10 175q-33 25 -168 38t-250 13v-62q0 -498 17 -590q74 -16 225 -28l8 -43q-143 8 -377 8q-199 0 -342 -8z" />
<glyph unicode="G" horiz-adv-x="1853" d="M115 682q0 205 89 361.5t234 256.5q244 166 602 166q129 0 267.5 -16t191.5 -35q23 90 37 191l47 10q-10 -70 -21 -286q-8 -158 -9 -271q0 -41 1 -76l-47 25q-6 88 -22 188q-166 199 -533 199q-262 0 -428 -171t-166 -421q0 -127 52.5 -260t144.5 -246t231.5 -184.5 t298.5 -71.5q158 0 261 53q6 45 6 203v109q0 115 -9 163q-190 18 -206 23l-13 43q160 -6 336 -6q285 0 322 6l-10 -43q-156 -16 -179 -23q-8 -47 -8 -227v-66q0 -184 4 -241q-88 -27 -253 -47.5t-271 -20.5q-346 0 -543 99q-193 96 -300 259.5t-107 356.5z" />
<glyph unicode="H" horiz-adv-x="1984" d="M98 -8l13 43q96 4 213 28q10 121 10 596v193q0 434 -10 518q-80 18 -215 29l-11 43q70 -8 361 -8q268 0 334 8l-11 -43q-117 -8 -198 -29q-16 -111 -17 -473v-100q4 0 97.5 -1t201.5 -1h229q120 0 210 2t112 6v94q0 422 -12 473q-88 20 -203 29l-10 43q70 -8 352 -8 q268 0 342 8l-12 -43q-4 0 -209 -29q-14 -57 -14 -518v-143q0 -555 18 -646q123 -25 207 -28l10 -43q-78 8 -344 8q-211 0 -350 -8l10 43q104 6 203 28q12 70 12 547v119q-78 -2 -453.5 -22.5t-396.5 -24.5v-72q0 -395 17 -547q109 -25 198 -28l11 -43q-86 8 -334 8 q-238 0 -361 -8z" />
<glyph unicode="I" horiz-adv-x="901" d="M98 -8l8 43q96 6 218 28q10 109 10 666v121q0 432 -10 520q-63 12 -215 29l-11 43q78 -8 389 -8q246 0 316 8l-10 -43q-18 -2 -97.5 -13.5t-117.5 -15.5q-10 -51 -11 -530v-127q0 -598 11 -650q51 -12 215 -28l10 -43q-90 8 -385 8q-197 0 -320 -8z" />
<glyph unicode="J" horiz-adv-x="858" d="M45 1442q98 -8 404 -8q215 0 354 8l-6 -43q-10 -2 -94.5 -13.5t-124.5 -15.5q-10 -80 -11 -528v-109v-473q0 -141 -17.5 -224t-78.5 -190q-84 -145 -352 -348l-43 15q166 176 217 366q49 170 49 819v142q0 410 -18 530q-102 16 -271 29z" />
<glyph unicode="K" horiz-adv-x="1638" d="M98 -8l8 43q154 12 218 28q10 150 10 658v117q0 440 -10 532q-125 20 -220 29l-6 43q82 -8 361 -8q258 0 336 8l-9 -43q-8 -2 -95 -13.5t-113 -15.5q-10 -82 -11 -551v-63q16 14 74.5 64t106 92t115 102.5t121.5 110t106.5 99.5t87 88t47.5 58q-63 16 -152 29l-8 43 q172 -8 311 -8q84 0 223 8l-12 -43q-86 -12 -135 -25q-59 -31 -263 -197.5t-292 -246.5q63 -100 380.5 -497.5t395.5 -469.5l-69 -22q-100 39 -433 358t-475 471q-68 -49 -129 -106v-50q0 -446 11 -540q27 -12 233 -39l4 -43q-78 8 -366 8q-232 0 -351 -8z" />
<glyph unicode="L" horiz-adv-x="1206" d="M98 -8l8 43q164 10 218 28q10 113 10 689v118q0 418 -10 500q-113 20 -220 29l-6 43q102 -8 355 -8q295 0 376 8l-10 -43q-25 -2 -113 -13.5t-128 -15.5q-10 -82 -11 -524v-74q0 -649 11 -706q330 0 489 104q20 45 74 233l49 9q-72 -317 -109 -674l-47 10q0 10 5 109.5 t5 130.5q-135 12 -598 12q-233 0 -348 -8z" />
<glyph unicode="M" horiz-adv-x="2170" d="M-2 -8l14 43q135 25 146 26q31 88 150.5 623t148.5 686q-23 4 -70 10t-85 11.5t-48 7.5l-12 43q53 -8 295 -8q193 0 307 8l-8 -43q-35 -4 -154 -29q41 -131 180 -507t193 -505q47 94 231 536.5t187 475.5q-27 10 -140 29l-10 43q131 -8 276 -8q190 0 285 8l-6 -43 q-129 -18 -172 -29q29 -172 135.5 -691t132.5 -616q4 -2 170 -28l10 -43q-139 8 -288 8q-260 0 -379 -8l4 43q16 2 113.5 12t111.5 12q-2 33 -48 284t-98 530.5t-61 334.5h-8q-6 -12 -244.5 -583.5t-275.5 -640.5q-39 88 -242.5 623.5t-224.5 602.5h-8q-10 -66 -47 -266.5 t-60.5 -332.5t-42.5 -294q-17 -146 -16 -234v-20q49 -10 182 -28l8 -43q-57 8 -305 8q-92 0 -227 -8z" />
<glyph unicode="N" horiz-adv-x="1859" d="M82 -8l6 43q143 20 170 28q23 55 40 596t17 707q-78 16 -225 25l-8 43q23 0 198 5t269 9q31 -49 246 -320.5t245 -302.5q6 -6 206 -240.5t239 -267.5q0 940 -43 1053q-109 23 -207 29l-10 43q78 -8 305 -8q172 0 258 8l-8 -43q-8 -2 -66.5 -13.5t-89.5 -15.5 q-8 -27 -15 -95.5t-11.5 -124.5t-8.5 -133t-4 -81q-2 -27 -15.5 -509t-19.5 -529q-27 25 -182.5 203t-321 369.5t-172.5 199.5q-14 14 -232 279t-253 304q-2 -12 -2 -61q0 -132 12 -530q16 -549 35 -599q23 -8 223 -28l7 -43q-74 8 -304 8q-159 0 -278 -8z" />
<glyph unicode="O" horiz-adv-x="1939" d="M113 692q0 319 245.5 546.5t653.5 227.5q174 0 307 -35.5t260 -130.5q119 -86 183.5 -223t64.5 -284q0 -371 -251 -598.5t-634 -227.5q-408 0 -633 230q-109 111 -152.5 227t-43.5 268zM348 778q0 -285 202 -506t492 -221q221 0 378 173t157 419q0 319 -190.5 532.5 t-450.5 213.5q-147 0 -277.5 -62.5t-220.5 -205t-90 -343.5z" />
<glyph unicode="P" horiz-adv-x="1308" d="M98 -8l8 43q6 0 54.5 6t93.5 12t70 10q10 113 10 717v82q0 420 -10 508q-37 14 -220 29l-6 43q27 0 215.5 1t239.5 1q348 0 494 -60q201 -84 200 -251q0 -184 -141 -326q-88 -88 -216 -138.5t-214 -62.5l6 51q33 8 62.5 18.5t81 42.5t87 71.5t63.5 110.5t28 159 q0 197 -166 278q-92 45 -265 45q-10 -74 -10 -526v-86q0 -633 10 -707q49 -8 261 -28l10 -43q-135 8 -391 8q-240 0 -355 -8z" />
<glyph unicode="Q" horiz-adv-x="1937" d="M113 696q0 145 58 281.5t166.5 246t282 176t384.5 66.5q412 0 634 -221q186 -182 187 -457q0 -240 -114 -421t-308 -291q76 -113 278.5 -299.5t286.5 -239.5l-47 -20q-88 16 -387 199.5t-393 267.5q-2 0 -35 -4.5t-55 -6.5q-111 -6 -119 -6q-406 0 -625 219 q-194 195 -194 510zM342 772q0 -174 92 -342t250 -276.5t332 -108.5q264 0 415.5 184.5t151.5 452.5q0 289 -200.5 499t-462.5 210q-240 0 -409 -166t-169 -453z" />
<glyph unicode="R" horiz-adv-x="1531" d="M96 -8l8 43q143 10 218 28q10 74 10 676v125q0 457 -10 506q-33 8 -220 25l-6 43l443 2q432 0 577 -58q176 -70 176 -233q0 -96 -85 -208t-203 -179q31 -68 229.5 -368t335.5 -445l-90 -15q-90 41 -372 344.5t-349 393.5q-156 -12 -197 -13v-53q0 -385 10 -543 q45 -12 215 -28l9 -43q-102 8 -353 8q-252 0 -346 -8zM561 723q145 0 250 39q88 33 160.5 113.5t72.5 216.5q0 115 -114.5 202.5t-358.5 87.5q-10 -139 -10 -596v-63z" />
<glyph unicode="S" horiz-adv-x="1130" d="M129 -207q33 229 33 336q0 4 5 150q3 81 3 125q0 36 -2 49l47 -13q-1 -12 -1 -25q0 -60 15 -155q43 -100 128 -161.5t190 -61.5q123 0 207 72.5t84 185.5q0 59 -19.5 107.5t-64.5 91.5t-78 67.5t-101 67.5q-92 59 -144 99t-108.5 99.5t-82 127t-25.5 151.5 q0 139 106.5 249.5t315.5 110.5q129 0 276 -36l37 165l47 7q-49 -348 -49 -562l-47 21q0 82 -8 156q-20 63 -97 123.5t-175 60.5q-121 0 -185.5 -62.5t-64.5 -142.5q0 -23 4 -42t15 -38.5t21.5 -35t32 -34t35 -29.5t43 -31.5t44 -30t50 -31t50.5 -31.5q82 -51 128 -86 t103 -94.5t84 -133t27 -165.5q0 -207 -143.5 -327t-360.5 -120q-186 0 -283 51q-16 -63 -45 -213z" />
<glyph unicode="T" horiz-adv-x="1527" d="M18 1057q31 364 31 500v16l47 -8q8 -102 13 -133q29 -6 250 -13.5t411 -7.5q205 0 430 7t254 14q6 16 29 127l51 8q-20 -80 -66 -529l-47 13q5 96 6 157q0 31 -2 54q-39 31 -212 58.5t-322 27.5q-10 -92 -10 -502v-92q0 -418 10 -691q16 -2 264 -28l8 -43q-98 8 -401 8 q-279 0 -397 -8l10 43q109 10 262 28q10 266 10 691v92q0 424 -10 502q-393 0 -531 -86q-12 -33 -40 -193z" />
<glyph unicode="U" horiz-adv-x="1755" d="M90 1442q115 -8 346 -8q201 0 303 8l-10 -43q-147 -16 -213 -29q-10 -57 -10 -471v-272q0 -305 111.5 -443.5t293.5 -138.5q190 0 295 98q78 74 107.5 202t29.5 329v188q0 424 -10 508q-119 20 -223 29l-14 43q102 -8 331 -8q180 0 250 8l-12 -43q-16 -4 -65.5 -13.5 t-77.5 -15.5q-10 -51 -11 -342v-98q0 -41 2.5 -128t2.5 -124q0 -389 -201 -567q-162 -143 -428 -144q-307 0 -463 170t-156 451v319q0 367 -10 463q-53 12 -162 29z" />
<glyph unicode="V" horiz-adv-x="1529" d="M-63 1442q131 -8 294 -8q264 0 355 8l-11 -43q-152 -14 -192 -29q12 -57 222 -545.5t247 -533.5q98 197 265 569.5t194 509.5q-16 4 -48 8t-74 10.5t-67 10.5l-10 43q57 -8 299 -8q131 0 229 8l-10 -43q-8 -2 -125 -29q-29 -16 -365.5 -696t-371.5 -764 q-18 31 -328.5 704.5t-367.5 755.5q-57 18 -127 29z" />
<glyph unicode="W" horiz-adv-x="2158" d="M-55 1442q115 -8 301 -8q236 0 329 8l-10 -43q-16 -4 -92 -14.5t-94 -14.5q20 -92 140 -537.5t145 -508.5h4q4 10 91 231t171 449.5t104 312.5q-35 8 -115.5 20.5t-84.5 12.5l-11 43q156 -8 291 -9q195 0 293 9l-6 -43q-143 -25 -164 -33q16 -43 175 -476t198 -530h4 q4 10 38 123l70 236q37 123 77 265t66.5 261t30.5 174q-35 8 -108.5 17.5t-83.5 11.5l-10 43q86 -8 268 -8q139 0 266 8l-6 -43q-82 -10 -131 -29q-37 -41 -263 -692t-265 -784q-43 90 -245 594.5t-245 629.5q-432 -1094 -489 -1224q-29 68 -222.5 704.5t-255.5 771.5 q-37 10 -153 29z" />
<glyph unicode="X" horiz-adv-x="1452" d="M-45 -8l14 43q94 14 129 28q37 23 149.5 162.5t249 322.5t138.5 185q-49 61 -240.5 321.5t-244.5 315.5q-23 8 -134 29l-6 43q49 -8 314 -8q158 0 325 8l-12 -43q-102 -10 -174 -29q20 -41 152.5 -234.5t166.5 -234.5q61 80 170 239.5t144 229.5q-31 10 -146 29l-8 43 q94 -8 266 -8q111 0 213 8l-4 -43q-20 -6 -66 -15.5t-61 -13.5q-25 -8 -200 -214t-263 -318q41 -55 302.5 -428t345.5 -484l-86 -20q-98 74 -219 197.5t-205 224t-174.5 211t-106.5 129.5q-45 -49 -183.5 -269.5t-193.5 -335.5q84 -18 170 -28l6 -43q-6 0 -120.5 4t-184.5 4 q-121 0 -223 -8z" />
<glyph unicode="Y" horiz-adv-x="1339" d="M-72 1442q70 -8 357 -8q225 0 282 8l-10 -43q-18 -4 -84.5 -13.5t-91.5 -15.5q70 -123 221.5 -354.5t171.5 -265.5q4 10 99.5 158.5t174 286.5t80.5 175q-49 12 -159 29l-6 43q61 -8 258 -8q154 0 247 8l-6 -43q-129 -27 -139 -29q-33 -10 -253 -322.5t-243 -379.5 q-8 -47 -8 -146v-78q0 -317 10 -381q10 -2 51.5 -8t87.5 -12t60 -8l4 -43q-86 8 -366 8q-166 0 -281 -8l10 43q119 12 180 28q10 39 11 388v65q0 82 -6 135q-14 45 -224.5 351.5t-275.5 367.5q-12 6 -38 11t-59.5 10.5t-45.5 7.5z" />
<glyph unicode="Z" horiz-adv-x="1470" d="M55 -12q76 80 507 674.5t482 687.5q-19 1 -39 0q-138 0 -393 -23q-293 -27 -333 -65q-12 -31 -41 -128.5t-33 -109.5l-47 -6q33 143 65 612l47 -10q0 -18 2 -95t4 -95q29 -6 244 -12.5t275 -6.5q375 0 585 10q-88 -111 -493.5 -668.5t-485.5 -678.5q48 -2 99 -2 q183 0 399 23q276 30 350 91q18 25 86 267l47 12q-106 -614 -112 -701l-47 15q10 195 10 196q-16 10 -233.5 17.5t-385.5 7.5q-194 0 -559 -12z" />
<glyph unicode="[" horiz-adv-x="716" d="M195 -244q8 76 8 977v156q0 637 -8 694l440 14l-10 -53l-234 -22q-14 -61 -14 -621v-164q0 -852 14 -911l244 -31l-14 -53z" />
<glyph unicode="\" horiz-adv-x="1003" d="M8 1436l160 -2q2 -16 63.5 -127t156.5 -274t108 -185q451 -793 501 -860l-168 12q-168 354 -397 754q-96 168 -238.5 401.5t-185.5 280.5z" />
<glyph unicode="]" horiz-adv-x="716" d="M82 -205l244 31q14 59 14 911v164q0 559 -14 621l-234 22l-10 53l440 -14q-8 -57 -8 -694v-156q0 -901 8 -977l-426 -14z" />
<glyph unicode="^" horiz-adv-x="1249" d="M150 621q283 483 477 837q27 -45 209 -368.5t264 -456.5l-144 -51q-66 131 -190.5 390t-147.5 304q-104 -215 -362 -680z" />
<glyph unicode="_" horiz-adv-x="1024" d="M0 -154h1024v-102h-1024v102z" />
<glyph unicode="`" horiz-adv-x="1878" d="M573 1739l80 157q68 -47 229.5 -151.5t176.5 -106.5l-25 -65q-51 25 -241.5 96.5t-219.5 69.5z" />
<glyph unicode="a" d="M-113 -8l7 43q88 8 176 28q78 137 510 1309q-43 12 -162 27l-2 43q123 -8 266 -8q231 0 350 8l-6 -43q-96 -10 -156 -27q37 -131 215 -627q178 -489 279 -682q63 -12 180 -28l6 -43q-49 8 -340 8q-236 0 -346 -8l10 43q129 10 207 28q-195 565 -215 601q-66 0 -244 -9.5 t-229 -17.5q-14 -35 -71.5 -253t-71.5 -321q57 -16 176 -28l8 -43q-127 8 -309 8q-144 0 -238 -8zM422 733l430 -8q-14 43 -101 295t-108 317h-4q-27 -74 -78 -215t-91 -250.5t-48 -138.5z" />
<glyph unicode="b" horiz-adv-x="1398" d="M98 -8l8 43q162 14 213 28q14 141 15 627v129q0 403 -15 551q-55 10 -210 21l-11 43q541 16 588 16q141 0 239.5 -26.5t142.5 -71.5t61.5 -85t17.5 -83q0 -106 -53 -193q-88 -139 -265 -213v-6q166 -27 293 -134.5t127 -260.5q0 -176 -132 -284.5t-345 -108.5 q-25 0 -172 8q-143 8 -190 8q-193 0 -312 -8zM555 600q0 -133 8 -310t17 -198q61 -43 163 -43q139 0 208 68.5t69 181.5q0 102 -61.5 205.5t-161.5 157.5q-57 29 -128 41q-48 9 -84 10q-16 0 -30 -2v-111zM555 772q152 0 246 70q119 86 119 258q0 133 -76 214t-201 81 q-53 0 -82 -13q-6 -31 -6 -495v-115z" />
<glyph unicode="c" horiz-adv-x="1656" d="M113 684q0 201 89 357.5t234 254.5q147 100 290.5 135t320.5 35q242 0 428 -53q6 12 15 51t17.5 82t10.5 49l47 11q-41 -305 -45 -633l-47 14q0 100 -13 170q-35 80 -174 159t-319 79q-272 0 -440.5 -171t-168.5 -419q0 -303 220.5 -520t541.5 -217q299 0 486 110 l-29 -88q-49 -41 -206 -82t-370 -41q-283 0 -464 90q-199 98 -311.5 264t-112.5 363z" />
<glyph unicode="d" horiz-adv-x="1925" d="M98 -8l8 43q139 8 213 28q14 49 15 637v162q0 451 -15 508q-96 18 -217 29l-4 43q61 -8 338 -8q25 0 204 4t269 4q383 0 578 -94q170 -82 253 -214.5t83 -281.5q0 -168 -67.5 -317.5t-200 -272.5t-353.5 -194.5t-506 -71.5q-500 0 -598 -4zM567 682q0 -440 15 -569 q96 -37 223 -37q201 0 372 73.5t282.5 228t111.5 363.5q0 307 -223 473q-104 78 -265 115t-321 37q-115 0 -180 -12q-4 -20 -9.5 -262t-5.5 -330v-80z" />
<glyph unicode="e" horiz-adv-x="1304" d="M98 -8l11 43q133 8 210 28q14 63 15 639v95q0 463 -15 573q-25 4 -213 29l-8 43q49 -2 185 -6q37 0 98 -1t82 -1q547 0 602 14q10 41 16 96l47 8q-18 -78 -41 -424l-45 15v147q-25 39 -185.5 62.5t-274.5 23.5q-14 -68 -15 -545v-40q336 0 424 32q14 41 21 88l43 4 q-2 -18 -24.5 -183t-29.5 -200l-38 17q4 86 4 137q-88 45 -400 45v-41q0 -492 15 -631q369 0 491 70q12 41 27.5 105.5t17.5 74.5l47 13q-10 -45 -35.5 -221.5t-31.5 -252.5l-43 9q0 92 -2 125q-106 18 -643 18q-152 0 -312 -8z" />
<glyph unicode="f" horiz-adv-x="1302" d="M98 -8l8 43q6 2 51.5 5t93.5 9t73 14q10 78 10 609v127q0 475 -10 571q-18 8 -218 29l-8 43q143 -8 359 -8q606 0 649 12q14 59 27 145l47 11q-31 -174 -35 -504l-47 16q0 96 -11 162q-49 45 -219 70.5t-284 25.5q-16 -45 -17 -549v-45q340 0 432 29q8 27 29 121l43 6 q-27 -209 -33 -457l-43 12q0 72 -10 175q-33 25 -168 38t-250 13v-62q0 -498 17 -590q74 -16 225 -28l8 -43q-143 8 -377 8q-199 0 -342 -8z" />
<glyph unicode="g" horiz-adv-x="1853" d="M115 682q0 205 89 361.5t234 256.5q244 166 602 166q129 0 267.5 -16t191.5 -35q23 90 37 191l47 10q-10 -70 -21 -286q-8 -158 -9 -271q0 -41 1 -76l-47 25q-6 88 -22 188q-166 199 -533 199q-262 0 -428 -171t-166 -421q0 -127 52.5 -260t144.5 -246t231.5 -184.5 t298.5 -71.5q158 0 261 53q6 45 6 203v109q0 115 -9 163q-190 18 -206 23l-13 43q160 -6 336 -6q285 0 322 6l-10 -43q-156 -16 -179 -23q-8 -47 -8 -227v-66q0 -184 4 -241q-88 -27 -253 -47.5t-271 -20.5q-346 0 -543 99q-193 96 -300 259.5t-107 356.5z" />
<glyph unicode="h" horiz-adv-x="1984" d="M98 -8l13 43q96 4 213 28q10 121 10 596v193q0 434 -10 518q-80 18 -215 29l-11 43q70 -8 361 -8q268 0 334 8l-11 -43q-117 -8 -198 -29q-16 -111 -17 -473v-100q4 0 97.5 -1t201.5 -1h229q120 0 210 2t112 6v94q0 422 -12 473q-88 20 -203 29l-10 43q70 -8 352 -8 q268 0 342 8l-12 -43q-4 0 -209 -29q-14 -57 -14 -518v-143q0 -555 18 -646q123 -25 207 -28l10 -43q-78 8 -344 8q-211 0 -350 -8l10 43q104 6 203 28q12 70 12 547v119q-78 -2 -453.5 -22.5t-396.5 -24.5v-72q0 -395 17 -547q109 -25 198 -28l11 -43q-86 8 -334 8 q-238 0 -361 -8z" />
<glyph unicode="i" horiz-adv-x="901" d="M98 -8l8 43q96 6 218 28q10 109 10 666v121q0 432 -10 520q-63 12 -215 29l-11 43q78 -8 389 -8q246 0 316 8l-10 -43q-18 -2 -97.5 -13.5t-117.5 -15.5q-10 -51 -11 -530v-127q0 -598 11 -650q51 -12 215 -28l10 -43q-90 8 -385 8q-197 0 -320 -8z" />
<glyph unicode="j" horiz-adv-x="858" d="M45 1442q98 -8 404 -8q215 0 354 8l-6 -43q-10 -2 -94.5 -13.5t-124.5 -15.5q-10 -80 -11 -528v-109v-473q0 -141 -17.5 -224t-78.5 -190q-84 -145 -352 -348l-43 15q166 176 217 366q49 170 49 819v142q0 410 -18 530q-102 16 -271 29z" />
<glyph unicode="k" horiz-adv-x="1638" d="M98 -8l8 43q154 12 218 28q10 150 10 658v117q0 440 -10 532q-125 20 -220 29l-6 43q82 -8 361 -8q258 0 336 8l-9 -43q-8 -2 -95 -13.5t-113 -15.5q-10 -82 -11 -551v-63q16 14 74.5 64t106 92t115 102.5t121.5 110t106.5 99.5t87 88t47.5 58q-63 16 -152 29l-8 43 q172 -8 311 -8q84 0 223 8l-12 -43q-86 -12 -135 -25q-59 -31 -263 -197.5t-292 -246.5q63 -100 380.5 -497.5t395.5 -469.5l-69 -22q-100 39 -433 358t-475 471q-68 -49 -129 -106v-50q0 -446 11 -540q27 -12 233 -39l4 -43q-78 8 -366 8q-232 0 -351 -8z" />
<glyph unicode="l" horiz-adv-x="1206" d="M98 -8l8 43q164 10 218 28q10 113 10 689v118q0 418 -10 500q-113 20 -220 29l-6 43q102 -8 355 -8q295 0 376 8l-10 -43q-25 -2 -113 -13.5t-128 -15.5q-10 -82 -11 -524v-74q0 -649 11 -706q330 0 489 104q20 45 74 233l49 9q-72 -317 -109 -674l-47 10q0 10 5 109.5 t5 130.5q-135 12 -598 12q-233 0 -348 -8z" />
<glyph unicode="m" horiz-adv-x="2170" d="M-2 -8l14 43q135 25 146 26q31 88 150.5 623t148.5 686q-23 4 -70 10t-85 11.5t-48 7.5l-12 43q53 -8 295 -8q193 0 307 8l-8 -43q-35 -4 -154 -29q41 -131 180 -507t193 -505q47 94 231 536.5t187 475.5q-27 10 -140 29l-10 43q131 -8 276 -8q190 0 285 8l-6 -43 q-129 -18 -172 -29q29 -172 135.5 -691t132.5 -616q4 -2 170 -28l10 -43q-139 8 -288 8q-260 0 -379 -8l4 43q16 2 113.5 12t111.5 12q-2 33 -48 284t-98 530.5t-61 334.5h-8q-6 -12 -244.5 -583.5t-275.5 -640.5q-39 88 -242.5 623.5t-224.5 602.5h-8q-10 -66 -47 -266.5 t-60.5 -332.5t-42.5 -294q-17 -146 -16 -234v-20q49 -10 182 -28l8 -43q-57 8 -305 8q-92 0 -227 -8z" />
<glyph unicode="n" horiz-adv-x="1859" d="M82 -8l6 43q143 20 170 28q23 55 40 596t17 707q-78 16 -225 25l-8 43q23 0 198 5t269 9q31 -49 246 -320.5t245 -302.5q6 -6 206 -240.5t239 -267.5q0 940 -43 1053q-109 23 -207 29l-10 43q78 -8 305 -8q172 0 258 8l-8 -43q-8 -2 -66.5 -13.5t-89.5 -15.5 q-8 -27 -15 -95.5t-11.5 -124.5t-8.5 -133t-4 -81q-2 -27 -15.5 -509t-19.5 -529q-27 25 -182.5 203t-321 369.5t-172.5 199.5q-14 14 -232 279t-253 304q-2 -12 -2 -61q0 -132 12 -530q16 -549 35 -599q23 -8 223 -28l7 -43q-74 8 -304 8q-159 0 -278 -8z" />
<glyph unicode="o" horiz-adv-x="1939" d="M113 692q0 319 245.5 546.5t653.5 227.5q174 0 307 -35.5t260 -130.5q119 -86 183.5 -223t64.5 -284q0 -371 -251 -598.5t-634 -227.5q-408 0 -633 230q-109 111 -152.5 227t-43.5 268zM348 778q0 -285 202 -506t492 -221q221 0 378 173t157 419q0 319 -190.5 532.5 t-450.5 213.5q-147 0 -277.5 -62.5t-220.5 -205t-90 -343.5z" />
<glyph unicode="p" horiz-adv-x="1308" d="M98 -8l8 43q6 0 54.5 6t93.5 12t70 10q10 113 10 717v82q0 420 -10 508q-37 14 -220 29l-6 43q27 0 215.5 1t239.5 1q348 0 494 -60q201 -84 200 -251q0 -184 -141 -326q-88 -88 -216 -138.5t-214 -62.5l6 51q33 8 62.5 18.5t81 42.5t87 71.5t63.5 110.5t28 159 q0 197 -166 278q-92 45 -265 45q-10 -74 -10 -526v-86q0 -633 10 -707q49 -8 261 -28l10 -43q-135 8 -391 8q-240 0 -355 -8z" />
<glyph unicode="q" horiz-adv-x="1937" d="M113 696q0 145 58 281.5t166.5 246t282 176t384.5 66.5q412 0 634 -221q186 -182 187 -457q0 -240 -114 -421t-308 -291q76 -113 278.5 -299.5t286.5 -239.5l-47 -20q-88 16 -387 199.5t-393 267.5q-2 0 -35 -4.5t-55 -6.5q-111 -6 -119 -6q-406 0 -625 219 q-194 195 -194 510zM342 772q0 -174 92 -342t250 -276.5t332 -108.5q264 0 415.5 184.5t151.5 452.5q0 289 -200.5 499t-462.5 210q-240 0 -409 -166t-169 -453z" />
<glyph unicode="r" horiz-adv-x="1531" d="M96 -8l8 43q143 10 218 28q10 74 10 676v125q0 457 -10 506q-33 8 -220 25l-6 43l443 2q432 0 577 -58q176 -70 176 -233q0 -96 -85 -208t-203 -179q31 -68 229.5 -368t335.5 -445l-90 -15q-90 41 -372 344.5t-349 393.5q-156 -12 -197 -13v-53q0 -385 10 -543 q45 -12 215 -28l9 -43q-102 8 -353 8q-252 0 -346 -8zM561 723q145 0 250 39q88 33 160.5 113.5t72.5 216.5q0 115 -114.5 202.5t-358.5 87.5q-10 -139 -10 -596v-63z" />
<glyph unicode="s" horiz-adv-x="1130" d="M129 -207q33 229 33 336q0 4 5 150q3 81 3 125q0 36 -2 49l47 -13q-1 -12 -1 -25q0 -60 15 -155q43 -100 128 -161.5t190 -61.5q123 0 207 72.5t84 185.5q0 59 -19.5 107.5t-64.5 91.5t-78 67.5t-101 67.5q-92 59 -144 99t-108.5 99.5t-82 127t-25.5 151.5 q0 139 106.5 249.5t315.5 110.5q129 0 276 -36l37 165l47 7q-49 -348 -49 -562l-47 21q0 82 -8 156q-20 63 -97 123.5t-175 60.5q-121 0 -185.5 -62.5t-64.5 -142.5q0 -23 4 -42t15 -38.5t21.5 -35t32 -34t35 -29.5t43 -31.5t44 -30t50 -31t50.5 -31.5q82 -51 128 -86 t103 -94.5t84 -133t27 -165.5q0 -207 -143.5 -327t-360.5 -120q-186 0 -283 51q-16 -63 -45 -213z" />
<glyph unicode="t" horiz-adv-x="1527" d="M18 1057q31 364 31 500v16l47 -8q8 -102 13 -133q29 -6 250 -13.5t411 -7.5q205 0 430 7t254 14q6 16 29 127l51 8q-20 -80 -66 -529l-47 13q5 96 6 157q0 31 -2 54q-39 31 -212 58.5t-322 27.5q-10 -92 -10 -502v-92q0 -418 10 -691q16 -2 264 -28l8 -43q-98 8 -401 8 q-279 0 -397 -8l10 43q109 10 262 28q10 266 10 691v92q0 424 -10 502q-393 0 -531 -86q-12 -33 -40 -193z" />
<glyph unicode="u" horiz-adv-x="1755" d="M90 1442q115 -8 346 -8q201 0 303 8l-10 -43q-147 -16 -213 -29q-10 -57 -10 -471v-272q0 -305 111.5 -443.5t293.5 -138.5q190 0 295 98q78 74 107.5 202t29.5 329v188q0 424 -10 508q-119 20 -223 29l-14 43q102 -8 331 -8q180 0 250 8l-12 -43q-16 -4 -65.5 -13.5 t-77.5 -15.5q-10 -51 -11 -342v-98q0 -41 2.5 -128t2.5 -124q0 -389 -201 -567q-162 -143 -428 -144q-307 0 -463 170t-156 451v319q0 367 -10 463q-53 12 -162 29z" />
<glyph unicode="v" horiz-adv-x="1529" d="M-63 1442q131 -8 294 -8q264 0 355 8l-11 -43q-152 -14 -192 -29q12 -57 222 -545.5t247 -533.5q98 197 265 569.5t194 509.5q-16 4 -48 8t-74 10.5t-67 10.5l-10 43q57 -8 299 -8q131 0 229 8l-10 -43q-8 -2 -125 -29q-29 -16 -365.5 -696t-371.5 -764 q-18 31 -328.5 704.5t-367.5 755.5q-57 18 -127 29z" />
<glyph unicode="w" horiz-adv-x="2158" d="M-55 1442q115 -8 301 -8q236 0 329 8l-10 -43q-16 -4 -92 -14.5t-94 -14.5q20 -92 140 -537.5t145 -508.5h4q4 10 91 231t171 449.5t104 312.5q-35 8 -115.5 20.5t-84.5 12.5l-11 43q156 -8 291 -9q195 0 293 9l-6 -43q-143 -25 -164 -33q16 -43 175 -476t198 -530h4 q4 10 38 123l70 236q37 123 77 265t66.5 261t30.5 174q-35 8 -108.5 17.5t-83.5 11.5l-10 43q86 -8 268 -8q139 0 266 8l-6 -43q-82 -10 -131 -29q-37 -41 -263 -692t-265 -784q-43 90 -245 594.5t-245 629.5q-432 -1094 -489 -1224q-29 68 -222.5 704.5t-255.5 771.5 q-37 10 -153 29z" />
<glyph unicode="x" horiz-adv-x="1452" d="M-45 -8l14 43q94 14 129 28q37 23 149.5 162.5t249 322.5t138.5 185q-49 61 -240.5 321.5t-244.5 315.5q-23 8 -134 29l-6 43q49 -8 314 -8q158 0 325 8l-12 -43q-102 -10 -174 -29q20 -41 152.5 -234.5t166.5 -234.5q61 80 170 239.5t144 229.5q-31 10 -146 29l-8 43 q94 -8 266 -8q111 0 213 8l-4 -43q-20 -6 -66 -15.5t-61 -13.5q-25 -8 -200 -214t-263 -318q41 -55 302.5 -428t345.5 -484l-86 -20q-98 74 -219 197.5t-205 224t-174.5 211t-106.5 129.5q-45 -49 -183.5 -269.5t-193.5 -335.5q84 -18 170 -28l6 -43q-6 0 -120.5 4t-184.5 4 q-121 0 -223 -8z" />
<glyph unicode="y" horiz-adv-x="1339" d="M-72 1442q70 -8 357 -8q225 0 282 8l-10 -43q-18 -4 -84.5 -13.5t-91.5 -15.5q70 -123 221.5 -354.5t171.5 -265.5q4 10 99.5 158.5t174 286.5t80.5 175q-49 12 -159 29l-6 43q61 -8 258 -8q154 0 247 8l-6 -43q-129 -27 -139 -29q-33 -10 -253 -322.5t-243 -379.5 q-8 -47 -8 -146v-78q0 -317 10 -381q10 -2 51.5 -8t87.5 -12t60 -8l4 -43q-86 8 -366 8q-166 0 -281 -8l10 43q119 12 180 28q10 39 11 388v65q0 82 -6 135q-14 45 -224.5 351.5t-275.5 367.5q-12 6 -38 11t-59.5 10.5t-45.5 7.5z" />
<glyph unicode="z" horiz-adv-x="1470" d="M55 -12q76 80 507 674.5t482 687.5q-19 1 -39 0q-138 0 -393 -23q-293 -27 -333 -65q-12 -31 -41 -128.5t-33 -109.5l-47 -6q33 143 65 612l47 -10q0 -18 2 -95t4 -95q29 -6 244 -12.5t275 -6.5q375 0 585 10q-88 -111 -493.5 -668.5t-485.5 -678.5q48 -2 99 -2 q183 0 399 23q276 30 350 91q18 25 86 267l47 12q-106 -614 -112 -701l-47 15q10 195 10 196q-16 10 -233.5 17.5t-385.5 7.5q-194 0 -559 -12z" />
<glyph unicode="{" horiz-adv-x="716" d="M61 725l17 47q80 0 112.5 37t32.5 115q0 16 -12 156.5t-12 176.5q0 139 106.5 230.5t325.5 109.5l-10 -57q-98 -4 -166 -59.5t-66 -184.5l6 -288q0 -39 -9 -75t-21.5 -58.5t-37 -47t-36.5 -35t-40 -29t-30 -20.5q102 -45 147.5 -125.5t37.5 -175.5l-31 -354 q-6 -72 10 -125t38.5 -81.5t69 -50t70 -28t72.5 -14.5l-27 -51q-168 14 -298 101t-130 251q0 33 28 227.5t28 229.5q0 80 -39.5 122t-135.5 56z" />
<glyph unicode="|" horiz-adv-x="575" d="M221 -532v2136h135v-2136h-135z" />
<glyph unicode="}" horiz-adv-x="716" d="M82 -211q49 8 72.5 14.5t69.5 28t68.5 50t39 81.5t10.5 125l-31 354q-8 94 37 175t148 126q-2 2 -30 20.5t-40 29t-36.5 35t-37 47t-21.5 58.5t-9 75l6 288q2 129 -65.5 184.5t-166.5 59.5l-10 57q219 -18 325.5 -109t106.5 -231q0 -37 -12 -177t-12 -156 q0 -78 32.5 -115t112.5 -37l16 -47q-96 -14 -135 -56t-39 -122q0 -35 28 -229.5t28 -227.5q0 -164 -130.5 -251t-297.5 -101z" />
<glyph unicode="~" horiz-adv-x="1249" d="M164 633q143 184 233 184q41 0 248 -78q164 -66 217 -63.5t174 110.5l43 -36q-4 -4 -19.5 -23.5t-21.5 -27t-22.5 -27t-26.5 -28.5t-25.5 -24.5t-28.5 -22.5t-28.5 -16.5t-31 -12.5t-29.5 -3q-51 0 -244 70q-184 72 -217 72q-57 0 -176 -111z" />
<glyph unicode="&#xa1;" horiz-adv-x="737" d="M221 -33q23 106 83.5 519t68.5 536l82 25q-2 -106 15 -526.5t34 -518.5q-152 -15 -283 -35zM285 1438l225 28l6 -219l-219 -26z" />
<glyph unicode="&#xa2;" horiz-adv-x="1159" d="M145 684q0 125 54.5 223.5t142.5 157.5q129 88 307 98q14 190 6 285l111 33q-25 -182 -33 -314q39 0 78 -3t61.5 -7t46 -9t29.5 -5q10 41 23 114l47 7q-12 -57 -20.5 -195.5t-6.5 -230.5l-47 4q0 61 -12 123q-20 45 -75.5 85t-129.5 44l-55 -756q76 -20 188.5 -1 t175.5 64l-14 -79q-39 -29 -132 -52.5t-226 -19.5q-12 -127 -13 -320l-108 -20q18 55 43 346q-215 27 -328 143.5t-113 284.5zM362 768q0 -152 66 -262.5t164 -153.5l55 740q-133 -10 -209 -99.5t-76 -224.5z" />
<glyph unicode="&#xa3;" horiz-adv-x="1095" d="M66 655l22 84l178 2q-20 221 -20 301q0 72 17.5 137.5t61.5 134t137 110.5t226 42q63 0 115.5 -10t86.5 -23.5t38 -13.5q23 82 41 197l47 2q-49 -254 -45 -545l-47 12q0 68 -13 154q-25 53 -89 107.5t-160 54.5q-35 0 -65 -7.5t-51.5 -20.5t-37.5 -30.5t-26.5 -37 t-17.5 -42t-10 -41t-5.5 -40t-2.5 -34.5t1.5 -26.5t1.5 -15.5q0 -125 24 -361q35 0 163 11.5t155 21.5l-29 -96h-283q0 -8 5 -51t9.5 -92.5t4.5 -85.5q0 -166 -168 -347h225q129 0 255 12.5t157 20.5q8 25 51 211l47 15q-10 -55 -31.5 -256t-25.5 -322l-47 12 q-6 123 -11 164q-27 16 -242.5 26.5t-314.5 10.5q-190 0 -297 -8l25 45q68 6 124 68.5t56 175.5q0 197 -31 401q-112 0 -204 -27z" />
<glyph unicode="&#xa4;" horiz-adv-x="978" d="M78 352l131 117q-86 102 -86 242q0 63 25.5 130.5t66.5 108.5l-131 113l82 80l117 -139q88 78 206 77q127 0 213 -77l113 139l82 -80l-125 -113q88 -88 88 -239q0 -61 -26.5 -129t-65.5 -111l133 -119l-82 -80l-119 142q-92 -74 -211 -74q-123 0 -210 74l-119 -142z M256 711q0 -117 67.5 -202t166 -85t167 85t68.5 202q0 115 -68.5 198.5t-167.5 83.5q-102 0 -167.5 -86.5t-65.5 -195.5z" />
<glyph unicode="&#xa5;" horiz-adv-x="1146" d="M-37 1442q98 -8 244 -8q221 0 291 8l-13 -45q-23 -2 -86 -9.5t-71 -7.5q238 -487 323 -626q53 94 172 335.5t121 290.5q-10 0 -77.5 7.5t-90.5 9.5l-10 45q49 -8 256 -8q121 0 203 8l-4 -45q-47 -4 -117 -17q-31 -18 -199 -309t-215 -399v-54q35 0 160 8.5t164 8.5 l-25 -78h-299v-113q35 0 143.5 7.5t151.5 7.5l-22 -76h-273v-45q0 -223 10 -272q147 -27 185 -31l4 -43q-94 8 -293 8q-156 0 -279 -8l13 43q80 8 168 31q10 33 10 276v41q-57 0 -320 -14l23 75h297v113q-14 0 -309 -16l22 77h287v35q-4 6 -99.5 180.5t-190.5 339 t-130 207.5q-53 10 -119 17z" />
<glyph unicode="&#xa6;" horiz-adv-x="575" d="M221 -373v746h135v-746h-135zM221 694v746h135v-746h-135z" />
<glyph unicode="&#xa7;" horiz-adv-x="1003" d="M88 856q0 125 51 238.5t129 193.5q88 92 173 136t202 44q45 0 141 -41q2 8 14.5 36t14.5 40l59 6q-43 -258 -43 -403l-55 4l-6 139q-72 135 -199 135q-57 0 -110 -42t-53 -109q0 -72 81 -135q45 -37 133.5 -100.5t129.5 -96.5q186 -145 186 -364q0 -145 -67.5 -298 t-195.5 -261.5t-278 -108.5q-109 0 -178 35q-2 -14 -7 -47t-11 -62l-62 -10q8 70 15.5 233.5t5.5 210.5l61 -6q0 -10 4 -67l6 -86q78 -98 220 -99q68 0 120 39t52 99q0 55 -27 92t-111 104q-33 25 -101.5 83t-100.5 83q-193 147 -193 385zM199 948q0 -106 42 -183t142 -157 q172 -137 266 -223q90 -82 90 -195l6 -2q78 111 78 228q0 115 -39 192.5t-145 159.5q-18 14 -117.5 87t-130.5 99q-115 102 -104 228l-8 2q-80 -93 -80 -236z" />
<glyph unicode="&#xa8;" horiz-adv-x="1878" d="M592 1677l98 160l158 -106l-103 -158zM1030 1681l100 156l156 -106l-104 -156z" />
<glyph unicode="&#xa9;" horiz-adv-x="1720" d="M82 702.5q0 313.5 223 531.5t555 218q336 0 557 -223t221 -527q0 -313 -223 -531t-555 -218t-555 218t-223 531.5zM201 714.5q0 -278.5 201.5 -482t467.5 -203.5q258 0 458 196.5t200 473t-205 477t-471 200.5t-458.5 -191.5t-192.5 -470zM432 674q0 242 180 368 q121 86 308 86q123 0 200 -38q18 53 25 79l35 5l-25 -351l-37 6q0 8 -3 52.5t-5 68.5q-27 45 -84 81t-133 36q-139 0 -214 -99.5t-75 -232.5q0 -174 105.5 -281.5t257.5 -107.5q125 0 245 80l-20 -76q-115 -76 -289 -76q-139 0 -237 50q-113 55 -173.5 149.5t-60.5 200.5z " />
<glyph unicode="&#xaa;" horiz-adv-x="942" d="M47 793l2 38q47 6 82 15q29 27 142.5 277.5t109.5 265.5q-23 6 -68 10v41q92 -6 148 -6q18 0 184 6l-4 -41q-33 -2 -76 -10q12 -35 109 -261q96 -217 137 -282q29 -6 90 -15l2 -38q-80 6 -192 6q-88 0 -174 -6l6 38q74 8 96 15q-84 197 -90 207q-27 2 -131 -9l-105 -8 q-8 -16 -30.5 -85.5t-28.5 -104.5q31 -8 78 -15l4 -38q-135 6 -158 6q-94 0 -133 -6zM334 1098h205l-107 266q-14 -37 -51 -138t-47 -128z" />
<glyph unicode="&#xab;" horiz-adv-x="1105" d="M162 745q16 12 115.5 93.5t176 145t93.5 79.5l20 -74q-59 -53 -235 -229q49 -47 130 -108.5t113 -82.5l-30 -147q-20 20 -184 158t-199 165zM530 745q16 12 115.5 93.5t176.5 145t93 79.5l21 -74q-59 -53 -236 -229q49 -47 130 -108.5t114 -82.5l-31 -147 q-20 20 -184 158t-199 165z" />
<glyph unicode="&#xac;" horiz-adv-x="1249" d="M143 737l17 129h942q-4 -88 -4 -264t4 -272l-139 -17q27 252 32 449q-164 8 -381 4q-246 -2 -471 -29z" />
<glyph unicode="&#xad;" horiz-adv-x="921" d="M143 653l17 166h618l-26 -98q-82 0 -293.5 -22.5t-315.5 -45.5z" />
<glyph unicode="&#xae;" horiz-adv-x="786" d="M55 1153q0 129 97.5 219t241 90t240.5 -90t97 -219t-97 -217t-240.5 -88t-241 88t-97.5 217zM119 1159.5q0 -112.5 85 -192.5t197 -80q111 0 190 73.5t79 186.5t-85 193.5t-198 80.5t-190.5 -74.5t-77.5 -187zM236 985l4 23l47 10v149v29v111l-43 6l-4 24h100q66 0 90 -2 q25 0 62 -12q45 -16 45 -57q0 -25 -22.5 -52.5t-55.5 -44.5q33 -55 127 -176l-25 -8q-14 8 -86 73.5t-90 84.5l-31 -4v-9q0 -66 4 -114l48 -8l4 -23q-88 4 -174 0zM352 1171q43 -6 66 5q18 6 34.5 25.5t16.5 49.5q0 61 -117 62v-142z" />
<glyph unicode="&#xaf;" horiz-adv-x="1878" d="M672 1638l20 134h516l-12 -80q-51 0 -276 -20t-248 -34z" />
<glyph unicode="&#xb0;" horiz-adv-x="763" d="M82 1065q0 129 87 213t216 84q127 0 212 -84t85 -213q0 -135 -86 -215t-213 -80t-214 80t-87 215zM199 1065q0 -88 53 -149.5t133 -61.5q82 0 132 58.5t50 148.5q0 92 -49 153.5t-139 61.5q-78 0 -129 -58.5t-51 -152.5z" />
<glyph unicode="&#xb1;" horiz-adv-x="1249" d="M154 147l16 129h440h486l-17 -108q-170 16 -469 8q-263 -4 -456 -29zM154 719l16 129h401q2 90 -8 346l139 16q-25 -217 -28 -362h422l-17 -109q-143 12 -407 9q-2 -141 10 -369l-139 -17q23 199 26 386q-214 -6 -415 -29z" />
<glyph unicode="&#xb2;" horiz-adv-x="839" d="M70 602q20 16 249 223q217 201 218 369q0 92 -58.5 148.5t-138.5 56.5q-86 0 -121 -29l-31 -170l-41 -8q25 291 25 338l37 -10l10 -72q20 6 74 12q43 6 96 6q156 0 238 -60t82 -159q0 -180 -242 -387q-94 -80 -205 -153v-5h111q217 0 293 43l36 115l41 4 q-25 -102 -43 -358l-38 8l-9 88h-583z" />
<glyph unicode="&#xb3;" horiz-adv-x="860" d="M125 545q16 66 33 270l39 -14v-99q57 -51 143 -51q106 0 168.5 49.5t62.5 137.5q0 96 -79.5 155.5t-186.5 75.5q16 20 106.5 129t118.5 145h-165q-94 0 -150 -20l-20 -76l-45 -10q16 88 28 336l41 -19v-98q31 -6 180 -6h322q-211 -217 -275 -311q137 -29 211 -90.5 t74 -137.5q0 -156 -153 -256q-113 -70 -269 -69q-68 0 -125 10l-20 -47z" />
<glyph unicode="&#xb4;" horiz-adv-x="1878" d="M821 1638q14 2 176 106.5t230 151.5l78 -157q-29 2 -222.5 -72t-236.5 -94z" />
<glyph unicode="&#xb5;" horiz-adv-x="1234" d="M205 872l188 31q10 -61 10 -231v-330q0 -106 58.5 -177t130.5 -71q113 0 199 117v663l186 29v-680q0 -94 48 -118.5t132 22.5l21 -55q-123 -96 -203 -97q-49 0 -85 28t-51.5 56.5t-31.5 71.5q-55 -74 -110.5 -115t-135.5 -41q-57 0 -122.5 32t-102.5 81 q2 -137 27.5 -323.5t54.5 -284.5l-4 -12q-139 20 -205 43q0 18 1 64t3 153.5t2 242.5v672q0 139 -10 229z" />
<glyph unicode="&#xb6;" horiz-adv-x="1077" d="M27 981q0 119 53 210t143 142t194.5 76t219.5 25h213q82 -2 240 -2l-9 -41q-117 -10 -157 -21q-12 -53 -13 -582v-227q0 -414 11 -612q61 4 120 8l11 -39q-231 -53 -314 -80q-242 -76 -331 -114l6 55q10 4 84.5 36.5t126.5 55.5q6 174 6 707v239q0 457 -6 551 q-238 -41 -238 -450q0 -176 52.5 -257t121.5 -96l4 -67q-92 12 -163.5 29.5t-144.5 53t-121 86t-78.5 130.5t-30.5 184zM715 561q0 -408 12 -655q25 6 94 20q6 170 6 652v239q0 434 -10 557q-51 0 -90 -2q-12 -86 -12 -584v-227z" />
<glyph unicode="&#xb7;" horiz-adv-x="655" d="M205 842l237 45l11 -219l-242 -45z" />
<glyph unicode="&#xb8;" horiz-adv-x="1878" d="M737 -535l19 66q100 -2 154.5 34t52.5 89q2 49 -38 87t-122 60l162 199h106l-131 -156q182 -53 182 -166q0 -106 -125 -162.5t-260 -50.5z" />
<glyph unicode="&#xb9;" horiz-adv-x="737" d="M82 1360q260 63 391 106q-20 -170 -20 -370v-68q0 -283 14 -369q16 -4 91 -13t81 -9l8 -43q-139 8 -268 8q-156 0 -295 -8l4 43q6 0 95 9t106 13q10 53 10 347v79q0 225 -6 256q-49 -2 -189 -20z" />
<glyph unicode="&#xba;" horiz-adv-x="1003" d="M113 1110q0 143 111.5 249.5t295.5 106.5q162 0 260 -80q111 -88 111 -227q0 -166 -114.5 -271.5t-287.5 -105.5q-184 0 -286 103q-90 90 -90 225zM279 1149q0 -109 72.5 -206t164.5 -97q90 0 144.5 71.5t54.5 174.5q0 127 -65.5 220t-168.5 93q-76 0 -139 -65.5 t-63 -190.5z" />
<glyph unicode="&#xbb;" horiz-adv-x="1105" d="M162 915l31 148q14 -14 101 -88t181 -153t100 -83q-16 -12 -115.5 -93t-176 -144.5t-93.5 -79.5l-20 74q80 72 238 229q-148 129 -246 190zM530 915l31 148q14 -14 101.5 -88t181.5 -153t100 -83q-16 -12 -115.5 -93t-176.5 -144.5t-93 -79.5l-20 74q80 72 237 229 q-148 129 -246 190z" />
<glyph unicode="&#xbc;" horiz-adv-x="1771" d="M74 1360q260 63 391 106q-20 -170 -21 -370v-68q0 -283 15 -369q16 -4 91 -13t81 -9l8 -43q-139 8 -268 8q-156 0 -295 -8l4 43q6 0 95 9t106 13q10 53 10 347v79q0 225 -6 256q-49 -2 -189 -20zM348 -92l952 1632l78 -49l-958 -1634zM846 254q82 80 315.5 330t306.5 323 q-10 -76 -10 -522v-53q98 0 135 20q8 20 18.5 67.5t12.5 51.5l41 2q0 -6 -6 -42t-9 -63.5t-6.5 -84t-1.5 -119.5l-40 6q-4 61 -11 78q-37 6 -133 6v-39q0 -121 6 -162q43 -8 144 -16l6 -41q-57 4 -258 4q-174 0 -248 -4l4 41q125 12 195 16q6 53 6 158v43h-467zM995 330 l318 2v344q-39 -41 -152 -165t-166 -181z" />
<glyph unicode="&#xbd;" horiz-adv-x="1771" d="M41 1360q260 63 391 106q-20 -170 -20 -370v-68q0 -283 14 -369q16 -4 91 -13t81 -9l8 -43q-139 8 -268 8q-156 0 -295 -8l4 43q6 0 95 9t106 13q10 53 10 347v79q0 225 -6 256q-49 -2 -189 -20zM317 -92l951 1632l78 -49l-957 -1638zM1022 0q20 16 250 223 q217 201 217 369q0 92 -58.5 148.5t-138.5 56.5q-84 0 -121 -29l-30 -170l-41 -8q25 291 24 338l37 -10l10 -72q74 18 170 18q156 0 238 -60.5t82 -158.5q0 -180 -242 -387q-94 -80 -205 -154v-4h111q217 0 293 43l37 115l41 4q-25 -102 -43 -358l-39 8l-8 88h-584z" />
<glyph unicode="&#xbe;" horiz-adv-x="1771" d="M88 545q16 66 33 270l39 -14v-99q57 -51 143 -51q106 0 169 49.5t63 137.5q0 96 -80 155.5t-187 75.5q16 20 106.5 129t119.5 145h-166q-94 0 -150 -20l-20 -76l-45 -10q16 88 28 336l41 -19v-98q31 -6 180 -6h322q-211 -217 -274 -311q137 -29 210.5 -90.5t73.5 -137.5 q0 -156 -153 -256q-113 -70 -269 -69q-68 0 -125 10l-20 -47zM365 -92l952 1632l78 -49l-957 -1634zM862 254q82 80 315.5 330t307.5 323q-10 -76 -10 -522v-53q98 0 135 20q8 20 18 67.5t12 51.5l41 2q0 -6 -6 -42t-9 -63.5t-6 -84t-1 -119.5l-41 6q-4 61 -10 78 q-37 6 -133 6v-39q0 -121 6 -162q43 -8 143 -16l6 -41q-57 4 -258 4q-174 0 -248 -4l4 41q125 12 195 16q6 53 6 158v43h-467zM1012 330l317 2v344q-39 -41 -151.5 -165t-165.5 -181z" />
<glyph unicode="&#xbf;" horiz-adv-x="1249" d="M158 260q0 195 245 381q45 35 115 74t86 49q25 61 74 328l86 20q4 -61 24.5 -174t24.5 -150q-147 -66 -238 -133q-72 -53 -110.5 -118.5t-45.5 -108.5t-7 -102q0 -104 69.5 -196.5t200.5 -92.5q104 0 177 45t108 102q23 57 45 193l47 14q-37 -295 -37 -620l-47 16 q-4 164 -10 223q-109 -43 -295 -43q-258 0 -385 84t-127 209zM580 1438l237 28l2 -196l-227 -33z" />
<glyph unicode="&#xc0;" d="M-113 -8l7 43q88 8 176 28q78 137 510 1309q-43 12 -162 27l-2 43q123 -8 266 -8q231 0 350 8l-6 -43q-96 -10 -156 -27q37 -131 215 -627q178 -489 279 -682q63 -12 180 -28l6 -43q-49 8 -340 8q-236 0 -346 -8l10 43q129 10 207 28q-195 565 -215 601q-66 0 -244 -9.5 t-229 -17.5q-14 -35 -71.5 -253t-71.5 -321q57 -16 176 -28l8 -43q-127 8 -309 8q-144 0 -238 -8zM365 1739l79 157q68 -47 230 -151.5t176 -106.5l-25 -65q-51 25 -241 96.5t-219 69.5zM422 733l430 -8q-14 43 -101 295t-108 317h-4q-27 -74 -78 -215t-91 -250.5 t-48 -138.5z" />
<glyph unicode="&#xc1;" d="M-113 -8l7 43q88 8 176 28q78 137 510 1309q-43 12 -162 27l-2 43q123 -8 266 -8q231 0 350 8l-6 -43q-96 -10 -156 -27q37 -131 215 -627q178 -489 279 -682q63 -12 180 -28l6 -43q-49 8 -340 8q-236 0 -346 -8l10 43q129 10 207 28q-195 565 -215 601q-66 0 -244 -9.5 t-229 -17.5q-14 -35 -71.5 -253t-71.5 -321q57 -16 176 -28l8 -43q-127 8 -309 8q-144 0 -238 -8zM422 733l430 -8q-14 43 -101 295t-108 317h-4q-27 -74 -78 -215t-91 -250.5t-48 -138.5zM612 1638q14 2 176 106.5t230 151.5l78 -157q-29 2 -222.5 -72t-236.5 -94z" />
<glyph unicode="&#xc2;" d="M-113 -8l7 43q88 8 176 28q78 137 510 1309q-43 12 -162 27l-2 43q123 -8 266 -8q231 0 350 8l-6 -43q-96 -10 -156 -27q37 -131 215 -627q178 -489 279 -682q63 -12 180 -28l6 -43q-49 8 -340 8q-236 0 -346 -8l10 43q129 10 207 28q-195 565 -215 601q-66 0 -244 -9.5 t-229 -17.5q-14 -35 -71.5 -253t-71.5 -321q57 -16 176 -28l8 -43q-127 8 -309 8q-144 0 -238 -8zM422 733l430 -8q-14 43 -101 295t-108 317h-4q-27 -74 -78 -215t-91 -250.5t-48 -138.5zM459 1628q41 35 138 128t122 122q244 -219 280 -248l-38 -49q-6 4 -61.5 34 t-111.5 60l-73 41q-35 -14 -113 -64t-104 -71z" />
<glyph unicode="&#xc3;" d="M-113 -8l7 43q88 8 176 28q78 137 510 1309q-43 12 -162 27l-2 43q123 -8 266 -8q231 0 350 8l-6 -43q-96 -10 -156 -27q37 -131 215 -627q178 -489 279 -682q63 -12 180 -28l6 -43q-49 8 -340 8q-236 0 -346 -8l10 43q129 10 207 28q-195 565 -215 601q-66 0 -244 -9.5 t-229 -17.5q-14 -35 -71.5 -253t-71.5 -321q57 -16 176 -28l8 -43q-127 8 -309 8q-144 0 -238 -8zM403 1630q18 53 67.5 121t90.5 68q31 0 146 -45q131 -51 182 -52q74 0 110 64l58 -12q-18 -55 -66.5 -115t-93.5 -60q-49 0 -156 46q-119 47 -159 47q-78 0 -121 -74z M422 733l430 -8q-14 43 -101 295t-108 317h-4q-27 -74 -78 -215t-91 -250.5t-48 -138.5z" />
<glyph unicode="&#xc4;" d="M-113 -8l7 43q88 8 176 28q78 137 510 1309q-43 12 -162 27l-2 43q123 -8 266 -8q231 0 350 8l-6 -43q-96 -10 -156 -27q37 -131 215 -627q178 -489 279 -682q63 -12 180 -28l6 -43q-49 8 -340 8q-236 0 -346 -8l10 43q129 10 207 28q-195 565 -215 601q-66 0 -244 -9.5 t-229 -17.5q-14 -35 -71.5 -253t-71.5 -321q57 -16 176 -28l8 -43q-127 8 -309 8q-144 0 -238 -8zM383 1677l98 160l158 -106l-102 -158zM422 733l430 -8q-14 43 -101 295t-108 317h-4q-27 -74 -78 -215t-91 -250.5t-48 -138.5zM821 1681l101 156l155 -106l-104 -156z" />
<glyph unicode="&#xc5;" d="M-113 -8l7 43q88 8 176 28q78 137 510 1309q-43 12 -162 27l-2 43q123 -8 266 -8q231 0 350 8l-6 -43q-96 -10 -156 -27q37 -131 215 -627q178 -489 279 -682q63 -12 180 -28l6 -43q-49 8 -340 8q-236 0 -346 -8l10 43q129 10 207 28q-195 565 -215 601q-66 0 -244 -9.5 t-229 -17.5q-14 -35 -71.5 -253t-71.5 -321q57 -16 176 -28l8 -43q-127 8 -309 8q-144 0 -238 -8zM422 733l430 -8q-14 43 -101 295t-108 317h-4q-27 -74 -78 -215t-91 -250.5t-48 -138.5zM494 1716q0 74 78.5 128t168.5 54q113 0 169.5 -35.5t56.5 -95.5q0 -66 -74 -125 t-193 -59q-90 0 -148 36t-58 97zM608 1751q0 -55 41 -91t88 -36q45 0 77 31t32 78t-34 86t-89 39q-41 0 -78 -31t-37 -76z" />
<glyph unicode="&#xc6;" horiz-adv-x="1830" d="M-211 -8l12 43q12 2 83 11t91 13q51 68 435.5 686.5t392.5 630.5q-41 12 -152 23l-10 43q31 -2 178 -6q39 0 90 -2h49q578 0 633 14q10 41 17 96l47 8q-18 -78 -41 -424l-45 15v147q-25 39 -200 62.5t-263 23.5q-14 -61 -14 -569v-70q106 0 248.5 10.5t177.5 22.5 q8 31 20 88l43 4q-6 -18 -17.5 -97t-21.5 -170t-14 -114l-39 17q4 86 4 137q-84 43 -401 43v-39q0 -76 5 -311.5t9 -268.5q383 0 493 70q12 41 27.5 105.5t18.5 74.5l47 13q-10 -45 -36 -221.5t-32 -252.5l-43 9q0 92 -2 125q-199 18 -623 18q-164 0 -303 -8l9 43 q123 10 190 24q10 29 10 555v64q-178 0 -405 -27q-45 -57 -141.5 -260t-131.5 -330q14 -6 140 -26l8 -43q-90 8 -314 8q-131 0 -229 -8zM508 745q31 -8 354 -8v68q0 473 -4 512l-10 2q-8 -14 -155.5 -258t-184.5 -316z" />
<glyph unicode="&#xc7;" horiz-adv-x="1656" d="M113 684q0 201 89 357.5t234 254.5q147 100 290.5 135t320.5 35q242 0 428 -53q6 12 15 51t17.5 82t10.5 49l47 11q-41 -305 -45 -633l-47 14q0 100 -13 170q-35 80 -174 159t-319 79q-272 0 -440.5 -171t-168.5 -419q0 -303 220.5 -520t541.5 -217q299 0 486 110 l-29 -88q-49 -41 -206 -82t-370 -41q-39 0 -67 2l-105 -125q182 -53 183 -166q0 -106 -125 -162.5t-260 -50.5l18 66q98 -2 152.5 33t54.5 90q0 104 -160 147l144 176q-178 20 -299 80q-199 98 -311.5 264t-112.5 363z" />
<glyph unicode="&#xc8;" horiz-adv-x="1304" d="M98 -8l11 43q133 8 210 28q14 63 15 639v95q0 463 -15 573q-25 4 -213 29l-8 43q49 -2 185 -6q37 0 98 -1t82 -1q547 0 602 14q10 41 16 96l47 8q-18 -78 -41 -424l-45 15v147q-25 39 -185.5 62.5t-274.5 23.5q-14 -68 -15 -545v-40q336 0 424 32q14 41 21 88l43 4 q-2 -18 -24.5 -183t-29.5 -200l-38 17q4 86 4 137q-88 45 -400 45v-41q0 -492 15 -631q369 0 491 70q12 41 27.5 105.5t17.5 74.5l47 13q-10 -45 -35.5 -221.5t-31.5 -252.5l-43 9q0 92 -2 125q-106 18 -643 18q-152 0 -312 -8zM348 1739l80 157q68 -47 229.5 -151.5 t176.5 -106.5l-25 -65q-51 25 -241.5 96.5t-219.5 69.5z" />
<glyph unicode="&#xc9;" horiz-adv-x="1304" d="M98 -8l11 43q133 8 210 28q14 63 15 639v95q0 463 -15 573q-25 4 -213 29l-8 43q49 -2 185 -6q37 0 98 -1t82 -1q547 0 602 14q10 41 16 96l47 8q-18 -78 -41 -424l-45 15v147q-25 39 -185.5 62.5t-274.5 23.5q-14 -68 -15 -545v-40q336 0 424 32q14 41 21 88l43 4 q-2 -18 -24.5 -183t-29.5 -200l-38 17q4 86 4 137q-88 45 -400 45v-41q0 -492 15 -631q369 0 491 70q12 41 27.5 105.5t17.5 74.5l47 13q-10 -45 -35.5 -221.5t-31.5 -252.5l-43 9q0 92 -2 125q-106 18 -643 18q-152 0 -312 -8zM535 1638q14 2 175.5 106.5t229.5 151.5 l78 -157q-29 2 -222.5 -72t-236.5 -94z" />
<glyph unicode="&#xca;" horiz-adv-x="1304" d="M98 -8l11 43q133 8 210 28q14 63 15 639v95q0 463 -15 573q-25 4 -213 29l-8 43q49 -2 185 -6q37 0 98 -1t82 -1q547 0 602 14q10 41 16 96l47 8q-18 -78 -41 -424l-45 15v147q-25 39 -185.5 62.5t-274.5 23.5q-14 -68 -15 -545v-40q336 0 424 32q14 41 21 88l43 4 q-2 -18 -24.5 -183t-29.5 -200l-38 17q4 86 4 137q-88 45 -400 45v-41q0 -492 15 -631q369 0 491 70q12 41 27.5 105.5t17.5 74.5l47 13q-10 -45 -35.5 -221.5t-31.5 -252.5l-43 9q0 92 -2 125q-106 18 -643 18q-152 0 -312 -8zM381 1628q41 35 138 128t122 122 q244 -219 281 -248l-39 -49q-6 4 -61.5 34t-110.5 60l-74 41q-35 -14 -113 -64t-104 -71z" />
<glyph unicode="&#xcb;" horiz-adv-x="1304" d="M98 -8l11 43q133 8 210 28q14 63 15 639v95q0 463 -15 573q-25 4 -213 29l-8 43q49 -2 185 -6q37 0 98 -1t82 -1q547 0 602 14q10 41 16 96l47 8q-18 -78 -41 -424l-45 15v147q-25 39 -185.5 62.5t-274.5 23.5q-14 -68 -15 -545v-40q336 0 424 32q14 41 21 88l43 4 q-2 -18 -24.5 -183t-29.5 -200l-38 17q4 86 4 137q-88 45 -400 45v-41q0 -492 15 -631q369 0 491 70q12 41 27.5 105.5t17.5 74.5l47 13q-10 -45 -35.5 -221.5t-31.5 -252.5l-43 9q0 92 -2 125q-106 18 -643 18q-152 0 -312 -8zM305 1677l98 160l158 -106l-102 -158z M743 1681l101 156l155 -106l-104 -156z" />
<glyph unicode="&#xcc;" horiz-adv-x="901" d="M86 1739l80 157q68 -47 229.5 -151.5t175.5 -106.5l-24 -65q-51 25 -241.5 96.5t-219.5 69.5zM98 -8l8 43q96 6 218 28q10 109 10 666v121q0 432 -10 520q-63 12 -215 29l-11 43q78 -8 389 -8q246 0 316 8l-10 -43q-18 -2 -97.5 -13.5t-117.5 -15.5q-10 -51 -11 -530 v-127q0 -598 11 -650q51 -12 215 -28l10 -43q-90 8 -385 8q-197 0 -320 -8z" />
<glyph unicode="&#xcd;" horiz-adv-x="901" d="M98 -8l8 43q96 6 218 28q10 109 10 666v121q0 432 -10 520q-63 12 -215 29l-11 43q78 -8 389 -8q246 0 316 8l-10 -43q-18 -2 -97.5 -13.5t-117.5 -15.5q-10 -51 -11 -530v-127q0 -598 11 -650q51 -12 215 -28l10 -43q-90 8 -385 8q-197 0 -320 -8zM334 1638 q14 2 176 106.5t229 151.5l78 -157q-29 2 -222.5 -72t-236.5 -94z" />
<glyph unicode="&#xce;" horiz-adv-x="901" d="M98 -8l8 43q96 6 218 28q10 109 10 666v121q0 432 -10 520q-63 12 -215 29l-11 43q78 -8 389 -8q246 0 316 8l-10 -43q-18 -2 -97.5 -13.5t-117.5 -15.5q-10 -51 -11 -530v-127q0 -598 11 -650q51 -12 215 -28l10 -43q-90 8 -385 8q-197 0 -320 -8zM180 1628 q41 35 138.5 128t121.5 122q244 -219 281 -248l-39 -49q-6 4 -61.5 34t-110.5 60l-74 41q-35 -14 -112.5 -64t-104.5 -71z" />
<glyph unicode="&#xcf;" horiz-adv-x="901" d="M98 -8l8 43q96 6 218 28q10 109 10 666v121q0 432 -10 520q-63 12 -215 29l-11 43q78 -8 389 -8q246 0 316 8l-10 -43q-18 -2 -97.5 -13.5t-117.5 -15.5q-10 -51 -11 -530v-127q0 -598 11 -650q51 -12 215 -28l10 -43q-90 8 -385 8q-197 0 -320 -8zM104 1677l99 160 l157 -106l-102 -158zM543 1681l100 156l156 -106l-105 -156z" />
<glyph unicode="&#xd0;" horiz-adv-x="1925" d="M98 -8l8 43q139 8 213 28q14 49 15 605v47q-141 -4 -223 -19l22 92q25 -2 201 -2v76q0 451 -15 508q-96 18 -217 29l-4 43q61 -8 365 -8q29 0 201 4t245 4q381 0 578 -92q172 -80 254 -209t82 -279q0 -170 -66.5 -322.5t-196.5 -275.5t-346.5 -195.5t-490.5 -72.5 q-527 0 -625 -4zM567 678q0 -440 15 -565q104 -37 235 -37q141 0 273.5 42t241 121.5t174 212t65.5 296.5q0 293 -225 469q-109 84 -252.5 116.5t-348.5 32.5q-111 0 -163 -10q-14 -68 -15 -533v-37q287 0 408 17l-23 -98q-260 10 -385 12v-39z" />
<glyph unicode="&#xd1;" horiz-adv-x="1859" d="M82 -8l6 43q143 20 170 28q23 55 40 596t17 707q-78 16 -225 25l-8 43q23 0 198 5t269 9q31 -49 246 -320.5t245 -302.5q6 -6 206 -240.5t239 -267.5q0 940 -43 1053q-109 23 -207 29l-10 43q78 -8 305 -8q172 0 258 8l-8 -43q-8 -2 -66.5 -13.5t-89.5 -15.5 q-8 -27 -15 -95.5t-11.5 -124.5t-8.5 -133t-4 -81q-2 -27 -15.5 -509t-19.5 -529q-27 25 -182.5 203t-321 369.5t-172.5 199.5q-14 14 -232 279t-253 304q-6 -43 10.5 -591.5t34.5 -598.5q23 -8 223 -28l7 -43q-74 8 -304 8q-159 0 -278 -8zM666 1630q18 53 67 121t90 68 q31 0 146 -45q131 -51 182 -52q74 0 111 64l57 -12q-18 -55 -66.5 -115t-93.5 -60q-49 0 -155 46q-119 47 -160 47q-78 0 -121 -74z" />
<glyph unicode="&#xd2;" horiz-adv-x="1939" d="M113 692q0 319 245.5 546.5t653.5 227.5q174 0 307 -35.5t260 -130.5q119 -86 183.5 -223t64.5 -284q0 -371 -251 -598.5t-634 -227.5q-408 0 -633 230q-109 111 -152.5 227t-43.5 268zM348 778q0 -285 202 -506t492 -221q221 0 378 173t157 419q0 319 -190.5 532.5 t-450.5 213.5q-147 0 -277.5 -62.5t-220.5 -205t-90 -343.5zM604 1739l80 157q68 -47 229.5 -151.5t176.5 -106.5l-25 -65q-51 25 -241.5 96.5t-219.5 69.5z" />
<glyph unicode="&#xd3;" horiz-adv-x="1939" d="M113 692q0 319 245.5 546.5t653.5 227.5q174 0 307 -35.5t260 -130.5q119 -86 183.5 -223t64.5 -284q0 -371 -251 -598.5t-634 -227.5q-408 0 -633 230q-109 111 -152.5 227t-43.5 268zM348 778q0 -285 202 -506t492 -221q221 0 378 173t157 419q0 319 -190.5 532.5 t-450.5 213.5q-147 0 -277.5 -62.5t-220.5 -205t-90 -343.5zM852 1638q14 2 176 106.5t229 151.5l78 -157q-29 2 -222 -72t-236 -94z" />
<glyph unicode="&#xd4;" horiz-adv-x="1939" d="M113 692q0 319 245.5 546.5t653.5 227.5q174 0 307 -35.5t260 -130.5q119 -86 183.5 -223t64.5 -284q0 -371 -251 -598.5t-634 -227.5q-408 0 -633 230q-109 111 -152.5 227t-43.5 268zM348 778q0 -285 202 -506t492 -221q221 0 378 173t157 419q0 319 -190.5 532.5 t-450.5 213.5q-147 0 -277.5 -62.5t-220.5 -205t-90 -343.5zM719 1628q41 35 138 128t122 122q244 -219 281 -248l-39 -49q-6 4 -61.5 34t-110.5 60l-74 41q-35 -14 -113 -64t-104 -71z" />
<glyph unicode="&#xd5;" horiz-adv-x="1939" d="M113 692q0 319 245.5 546.5t653.5 227.5q174 0 307 -35.5t260 -130.5q119 -86 183.5 -223t64.5 -284q0 -371 -251 -598.5t-634 -227.5q-408 0 -633 230q-109 111 -152.5 227t-43.5 268zM348 778q0 -285 202 -506t492 -221q221 0 378 173t157 419q0 319 -190.5 532.5 t-450.5 213.5q-147 0 -277.5 -62.5t-220.5 -205t-90 -343.5zM643 1630q18 53 67.5 121t90.5 68q31 0 145 -45q131 -51 182 -52q74 0 111 64l57 -12q-18 -55 -66 -115t-93 -60q-49 0 -156 46q-117 47 -160 47q-78 0 -121 -74z" />
<glyph unicode="&#xd6;" horiz-adv-x="1939" d="M113 692q0 319 245.5 546.5t653.5 227.5q174 0 307 -35.5t260 -130.5q119 -86 183.5 -223t64.5 -284q0 -371 -251 -598.5t-634 -227.5q-408 0 -633 230q-109 111 -152.5 227t-43.5 268zM348 778q0 -285 202 -506t492 -221q221 0 378 173t157 419q0 319 -190.5 532.5 t-450.5 213.5q-147 0 -277.5 -62.5t-220.5 -205t-90 -343.5zM623 1677l98 160l158 -106l-103 -158zM1061 1681l100 156l156 -106l-105 -156z" />
<glyph unicode="&#xd7;" horiz-adv-x="1249" d="M186 342l377 367q-170 162 -362 313l84 111q23 -25 94.5 -106t138 -152.5t105.5 -110.5l346 373l88 -99q-174 -139 -375 -327q229 -217 383 -340l-84 -111q-18 20 -98 111.5t-149.5 167t-110.5 116.5q-88 -84 -357 -403z" />
<glyph unicode="&#xd8;" horiz-adv-x="1939" d="M113 692q0 319 245.5 546.5t653.5 227.5q319 0 520 -133q63 57 147 150l136 -33q-41 -27 -203 -174q102 -90 158.5 -218t56.5 -265q0 -371 -251 -598.5t-634 -227.5q-332 0 -530 142q-137 -156 -146 -166l-135 24q133 115 211 199q-229 200 -229 526zM348 778 q0 -246 160 -456q80 74 222 214t202 197q236 221 454 445q-90 100 -208.5 155.5t-241.5 55.5q-147 0 -277.5 -62.5t-220.5 -205t-90 -343.5zM563 256q201 -205 479 -205q221 0 378 173t157 419q0 258 -137 463q-174 -162 -439 -426q-39 -37 -197.5 -190.5t-240.5 -233.5z " />
<glyph unicode="&#xd9;" horiz-adv-x="1755" d="M90 1442q115 -8 346 -8q201 0 303 8l-10 -43q-147 -16 -213 -29q-10 -57 -10 -471v-272q0 -305 111.5 -443.5t293.5 -138.5q190 0 295 98q78 74 107.5 202t29.5 329v188q0 424 -10 508q-119 20 -223 29l-14 43q102 -8 331 -8q180 0 250 8l-12 -43q-16 -4 -65.5 -13.5 t-77.5 -15.5q-10 -51 -11 -342v-98q0 -41 2.5 -128t2.5 -124q0 -389 -201 -567q-162 -143 -428 -144q-307 0 -463 170t-156 451v319q0 367 -10 463q-53 12 -162 29zM512 1739l80 157q68 -47 229.5 -151.5t175.5 -106.5l-24 -65q-51 25 -241.5 96.5t-219.5 69.5z" />
<glyph unicode="&#xda;" horiz-adv-x="1755" d="M90 1442q115 -8 346 -8q201 0 303 8l-10 -43q-147 -16 -213 -29q-10 -57 -10 -471v-272q0 -305 111.5 -443.5t293.5 -138.5q190 0 295 98q78 74 107.5 202t29.5 329v188q0 424 -10 508q-119 20 -223 29l-14 43q102 -8 331 -8q180 0 250 8l-12 -43q-16 -4 -65.5 -13.5 t-77.5 -15.5q-10 -51 -11 -342v-98q0 -41 2.5 -128t2.5 -124q0 -389 -201 -567q-162 -143 -428 -144q-307 0 -463 170t-156 451v319q0 367 -10 463q-53 12 -162 29zM821 1638q14 2 176 106.5t230 151.5l78 -157q-29 2 -222.5 -72t-236.5 -94z" />
<glyph unicode="&#xdb;" horiz-adv-x="1755" d="M90 1442q115 -8 346 -8q201 0 303 8l-10 -43q-147 -16 -213 -29q-10 -57 -10 -471v-272q0 -305 111.5 -443.5t293.5 -138.5q190 0 295 98q78 74 107.5 202t29.5 329v188q0 424 -10 508q-119 20 -223 29l-14 43q102 -8 331 -8q180 0 250 8l-12 -43q-16 -4 -65.5 -13.5 t-77.5 -15.5q-10 -51 -11 -342v-98q0 -41 2.5 -128t2.5 -124q0 -389 -201 -567q-162 -143 -428 -144q-307 0 -463 170t-156 451v319q0 367 -10 463q-53 12 -162 29zM668 1628q41 35 138 128t122 122q244 -219 280 -248l-39 -49q-6 4 -61 34t-111 60l-73 41q-35 -14 -113 -64 t-104 -71z" />
<glyph unicode="&#xdc;" horiz-adv-x="1755" d="M90 1442q115 -8 346 -8q201 0 303 8l-10 -43q-147 -16 -213 -29q-10 -57 -10 -471v-272q0 -305 111.5 -443.5t293.5 -138.5q190 0 295 98q78 74 107.5 202t29.5 329v188q0 424 -10 508q-119 20 -223 29l-14 43q102 -8 331 -8q180 0 250 8l-12 -43q-16 -4 -65.5 -13.5 t-77.5 -15.5q-10 -51 -11 -342v-98q0 -41 2.5 -128t2.5 -124q0 -389 -201 -567q-162 -143 -428 -144q-307 0 -463 170t-156 451v319q0 367 -10 463q-53 12 -162 29zM571 1677l99 160l157 -106l-102 -158zM1010 1681l100 156l156 -106l-105 -156z" />
<glyph unicode="&#xdd;" horiz-adv-x="1339" d="M-72 1442q70 -8 357 -8q225 0 282 8l-10 -43q-18 -4 -84.5 -13.5t-91.5 -15.5q70 -123 221.5 -354.5t171.5 -265.5q4 10 99.5 158.5t174 286.5t80.5 175q-49 12 -159 29l-6 43q61 -8 258 -8q154 0 247 8l-6 -43q-129 -27 -139 -29q-33 -10 -253 -322.5t-243 -379.5 q-8 -47 -8 -146v-78q0 -317 10 -381q10 -2 51.5 -8t87.5 -12t60 -8l4 -43q-86 8 -366 8q-166 0 -281 -8l10 43q119 12 180 28q10 39 11 388v65q0 82 -6 135q-14 45 -224.5 351.5t-275.5 367.5q-12 6 -38 11t-59.5 10.5t-45.5 7.5zM653 1638q14 2 176 106.5t230 151.5 l78 -157q-29 2 -222.5 -72t-236.5 -94z" />
<glyph unicode="&#xde;" horiz-adv-x="1329" d="M98 -8l11 43q8 2 56 7t94 11t65 10q10 113 10 703v96q0 426 -10 508q-55 16 -215 29l-11 43q90 -8 357 -8q227 0 342 8l-11 -43q-6 0 -217 -29l-6 -223q348 0 484 -53q66 -27 109.5 -64t61 -74.5t23.5 -62.5t6 -45q0 -176 -141 -301q-166 -145 -451 -182l7 59 q63 10 117.5 31.5t107.5 59.5t85 103.5t32 151.5q0 166 -148 250q-96 57 -293 63q-4 -106 -4 -227v-86q0 -649 4 -707q20 -4 70.5 -9t109 -11t74.5 -8l10 -43q-111 8 -374 8q-240 0 -355 -8z" />
<glyph unicode="&#xdf;" horiz-adv-x="2260" d="M129 -207q33 229 33 336q0 4 5 149.5t1 174.5l47 -13q-4 -63 14 -180q43 -100 128 -161.5t190 -61.5q123 0 207 72.5t84 185.5q0 59 -19.5 107.5t-64.5 91.5t-78 67.5t-101 67.5q-92 59 -144 99t-108.5 99.5t-82 127t-25.5 151.5q0 139 106.5 249.5t315.5 110.5 q129 0 276 -36l37 165l47 7q-49 -348 -49 -562l-47 21q0 82 -8 156q-20 63 -97 123.5t-175 60.5q-121 0 -185.5 -62.5t-64.5 -142.5q0 -23 4 -42t15 -38.5t21.5 -35t32 -34t35 -29.5t43 -31.5t44 -30t50 -31t50.5 -31.5q82 -51 128 -86t103 -94.5t84 -133t27 -165.5 q0 -207 -143.5 -327t-360.5 -120q-186 0 -283 51q-16 -63 -45 -213zM1260 -207q33 229 32 336q0 4 5.5 149.5t0.5 174.5l48 -13q-4 -63 14 -180q43 -100 128 -161.5t189 -61.5q123 0 207 72.5t84 185.5q0 59 -19.5 107.5t-64.5 91.5t-77.5 67.5t-100.5 67.5 q-92 59 -144.5 99t-108.5 99.5t-81.5 127t-25.5 151.5q0 139 106.5 249.5t314.5 110.5q129 0 277 -36l37 165l47 7q-49 -348 -49 -562l-47 21q0 82 -9 156q-20 63 -97 123.5t-175 60.5q-121 0 -185.5 -62.5t-64.5 -142.5q0 -23 4 -42t15.5 -38.5t21.5 -35t31.5 -34t35 -29.5 t43 -31.5t44 -30t50.5 -31t50 -31.5q82 -51 128 -86t103.5 -94.5t84 -133t26.5 -165.5q0 -207 -143.5 -327t-360.5 -120q-186 0 -282 51q-16 -63 -45 -213z" />
<glyph unicode="&#xe0;" d="M-113 -8l7 43q88 8 176 28q78 137 510 1309q-43 12 -162 27l-2 43q123 -8 266 -8q231 0 350 8l-6 -43q-96 -10 -156 -27q37 -131 215 -627q178 -489 279 -682q63 -12 180 -28l6 -43q-49 8 -340 8q-236 0 -346 -8l10 43q129 10 207 28q-195 565 -215 601q-66 0 -244 -9.5 t-229 -17.5q-14 -35 -71.5 -253t-71.5 -321q57 -16 176 -28l8 -43q-127 8 -309 8q-144 0 -238 -8zM365 1739l79 157q68 -47 230 -151.5t176 -106.5l-25 -65q-51 25 -241 96.5t-219 69.5zM422 733l430 -8q-14 43 -101 295t-108 317h-4q-27 -74 -78 -215t-91 -250.5 t-48 -138.5z" />
<glyph unicode="&#xe1;" d="M-113 -8l7 43q88 8 176 28q78 137 510 1309q-43 12 -162 27l-2 43q123 -8 266 -8q231 0 350 8l-6 -43q-96 -10 -156 -27q37 -131 215 -627q178 -489 279 -682q63 -12 180 -28l6 -43q-49 8 -340 8q-236 0 -346 -8l10 43q129 10 207 28q-195 565 -215 601q-66 0 -244 -9.5 t-229 -17.5q-14 -35 -71.5 -253t-71.5 -321q57 -16 176 -28l8 -43q-127 8 -309 8q-144 0 -238 -8zM422 733l430 -8q-14 43 -101 295t-108 317h-4q-27 -74 -78 -215t-91 -250.5t-48 -138.5zM612 1638q14 2 176 106.5t230 151.5l78 -157q-29 2 -222.5 -72t-236.5 -94z" />
<glyph unicode="&#xe2;" d="M-113 -8l7 43q88 8 176 28q78 137 510 1309q-43 12 -162 27l-2 43q123 -8 266 -8q231 0 350 8l-6 -43q-96 -10 -156 -27q37 -131 215 -627q178 -489 279 -682q63 -12 180 -28l6 -43q-49 8 -340 8q-236 0 -346 -8l10 43q129 10 207 28q-195 565 -215 601q-66 0 -244 -9.5 t-229 -17.5q-14 -35 -71.5 -253t-71.5 -321q57 -16 176 -28l8 -43q-127 8 -309 8q-144 0 -238 -8zM422 733l430 -8q-14 43 -101 295t-108 317h-4q-27 -74 -78 -215t-91 -250.5t-48 -138.5zM459 1628q41 35 138 128t122 122q244 -219 280 -248l-38 -49q-6 4 -61.5 34 t-111.5 60l-73 41q-35 -14 -113 -64t-104 -71z" />
<glyph unicode="&#xe3;" d="M-113 -8l7 43q88 8 176 28q78 137 510 1309q-43 12 -162 27l-2 43q123 -8 266 -8q231 0 350 8l-6 -43q-96 -10 -156 -27q37 -131 215 -627q178 -489 279 -682q63 -12 180 -28l6 -43q-49 8 -340 8q-236 0 -346 -8l10 43q129 10 207 28q-195 565 -215 601q-66 0 -244 -9.5 t-229 -17.5q-14 -35 -71.5 -253t-71.5 -321q57 -16 176 -28l8 -43q-127 8 -309 8q-144 0 -238 -8zM403 1630q18 53 67.5 121t90.5 68q31 0 146 -45q131 -51 182 -52q74 0 110 64l58 -12q-18 -55 -66.5 -115t-93.5 -60q-49 0 -156 46q-119 47 -159 47q-78 0 -121 -74z M422 733l430 -8q-14 43 -101 295t-108 317h-4q-27 -74 -78 -215t-91 -250.5t-48 -138.5z" />
<glyph unicode="&#xe4;" d="M-113 -8l7 43q88 8 176 28q78 137 510 1309q-43 12 -162 27l-2 43q123 -8 266 -8q231 0 350 8l-6 -43q-96 -10 -156 -27q37 -131 215 -627q178 -489 279 -682q63 -12 180 -28l6 -43q-49 8 -340 8q-236 0 -346 -8l10 43q129 10 207 28q-195 565 -215 601q-66 0 -244 -9.5 t-229 -17.5q-14 -35 -71.5 -253t-71.5 -321q57 -16 176 -28l8 -43q-127 8 -309 8q-144 0 -238 -8zM383 1677l98 160l158 -106l-102 -158zM422 733l430 -8q-14 43 -101 295t-108 317h-4q-27 -74 -78 -215t-91 -250.5t-48 -138.5zM821 1681l101 156l155 -106l-104 -156z" />
<glyph unicode="&#xe5;" d="M-113 -8l7 43q88 8 176 28q78 137 510 1309q-43 12 -162 27l-2 43q123 -8 266 -8q231 0 350 8l-6 -43q-96 -10 -156 -27q37 -131 215 -627q178 -489 279 -682q63 -12 180 -28l6 -43q-49 8 -340 8q-236 0 -346 -8l10 43q129 10 207 28q-195 565 -215 601q-66 0 -244 -9.5 t-229 -17.5q-14 -35 -71.5 -253t-71.5 -321q57 -16 176 -28l8 -43q-127 8 -309 8q-144 0 -238 -8zM422 733l430 -8q-14 43 -101 295t-108 317h-4q-27 -74 -78 -215t-91 -250.5t-48 -138.5zM494 1716q0 74 78.5 128t168.5 54q113 0 169.5 -35.5t56.5 -95.5q0 -66 -74 -125 t-193 -59q-90 0 -148 36t-58 97zM608 1751q0 -55 41 -91t88 -36q45 0 77 31t32 78t-34 86t-89 39q-41 0 -78 -31t-37 -76z" />
<glyph unicode="&#xe6;" horiz-adv-x="1830" d="M-211 -8l12 43q12 2 83 11t91 13q51 68 435.5 686.5t392.5 630.5q-41 12 -152 23l-10 43q31 -2 178 -6q39 0 90 -2h49q578 0 633 14q10 41 17 96l47 8q-18 -78 -41 -424l-45 15v147q-25 39 -200 62.5t-263 23.5q-14 -61 -14 -569v-70q106 0 248.5 10.5t177.5 22.5 q8 31 20 88l43 4q-6 -18 -17.5 -97t-21.5 -170t-14 -114l-39 17q4 86 4 137q-84 43 -401 43v-39q0 -76 5 -311.5t9 -268.5q383 0 493 70q12 41 27.5 105.5t18.5 74.5l47 13q-10 -45 -36 -221.5t-32 -252.5l-43 9q0 92 -2 125q-199 18 -623 18q-164 0 -303 -8l9 43 q123 10 190 24q10 29 10 555v64q-178 0 -405 -27q-45 -57 -141.5 -260t-131.5 -330q14 -6 140 -26l8 -43q-90 8 -314 8q-131 0 -229 -8zM508 745q31 -8 354 -8v68q0 473 -4 512l-10 2q-8 -14 -155.5 -258t-184.5 -316z" />
<glyph unicode="&#xe7;" horiz-adv-x="1656" d="M113 684q0 201 89 357.5t234 254.5q147 100 290.5 135t320.5 35q242 0 428 -53q6 12 15 51t17.5 82t10.5 49l47 11q-41 -305 -45 -633l-47 14q0 100 -13 170q-35 80 -174 159t-319 79q-272 0 -440.5 -171t-168.5 -419q0 -303 220.5 -520t541.5 -217q299 0 486 110 l-29 -88q-49 -41 -206 -82t-370 -41q-39 0 -67 2l-105 -125q182 -53 183 -166q0 -106 -125 -162.5t-260 -50.5l18 66q98 -2 152.5 33t54.5 90q0 104 -160 147l144 176q-178 20 -299 80q-199 98 -311.5 264t-112.5 363z" />
<glyph unicode="&#xe8;" horiz-adv-x="1304" d="M98 -8l11 43q133 8 210 28q14 63 15 639v95q0 463 -15 573q-25 4 -213 29l-8 43q49 -2 185 -6q37 0 98 -1t82 -1q547 0 602 14q10 41 16 96l47 8q-18 -78 -41 -424l-45 15v147q-25 39 -185.5 62.5t-274.5 23.5q-14 -68 -15 -545v-40q336 0 424 32q14 41 21 88l43 4 q-2 -18 -24.5 -183t-29.5 -200l-38 17q4 86 4 137q-88 45 -400 45v-41q0 -492 15 -631q369 0 491 70q12 41 27.5 105.5t17.5 74.5l47 13q-10 -45 -35.5 -221.5t-31.5 -252.5l-43 9q0 92 -2 125q-106 18 -643 18q-152 0 -312 -8zM348 1739l80 157q68 -47 229.5 -151.5 t176.5 -106.5l-25 -65q-51 25 -241.5 96.5t-219.5 69.5z" />
<glyph unicode="&#xe9;" horiz-adv-x="1304" d="M98 -8l11 43q133 8 210 28q14 63 15 639v95q0 463 -15 573q-25 4 -213 29l-8 43q49 -2 185 -6q37 0 98 -1t82 -1q547 0 602 14q10 41 16 96l47 8q-18 -78 -41 -424l-45 15v147q-25 39 -185.5 62.5t-274.5 23.5q-14 -68 -15 -545v-40q336 0 424 32q14 41 21 88l43 4 q-2 -18 -24.5 -183t-29.5 -200l-38 17q4 86 4 137q-88 45 -400 45v-41q0 -492 15 -631q369 0 491 70q12 41 27.5 105.5t17.5 74.5l47 13q-10 -45 -35.5 -221.5t-31.5 -252.5l-43 9q0 92 -2 125q-106 18 -643 18q-152 0 -312 -8zM535 1638q14 2 175.5 106.5t229.5 151.5 l78 -157q-29 2 -222.5 -72t-236.5 -94z" />
<glyph unicode="&#xea;" horiz-adv-x="1304" d="M98 -8l11 43q133 8 210 28q14 63 15 639v95q0 463 -15 573q-25 4 -213 29l-8 43q49 -2 185 -6q37 0 98 -1t82 -1q547 0 602 14q10 41 16 96l47 8q-18 -78 -41 -424l-45 15v147q-25 39 -185.5 62.5t-274.5 23.5q-14 -68 -15 -545v-40q336 0 424 32q14 41 21 88l43 4 q-2 -18 -24.5 -183t-29.5 -200l-38 17q4 86 4 137q-88 45 -400 45v-41q0 -492 15 -631q369 0 491 70q12 41 27.5 105.5t17.5 74.5l47 13q-10 -45 -35.5 -221.5t-31.5 -252.5l-43 9q0 92 -2 125q-106 18 -643 18q-152 0 -312 -8zM381 1628q41 35 138 128t122 122 q244 -219 281 -248l-39 -49q-6 4 -61.5 34t-110.5 60l-74 41q-35 -14 -113 -64t-104 -71z" />
<glyph unicode="&#xeb;" horiz-adv-x="1304" d="M98 -8l11 43q133 8 210 28q14 63 15 639v95q0 463 -15 573q-25 4 -213 29l-8 43q49 -2 185 -6q37 0 98 -1t82 -1q547 0 602 14q10 41 16 96l47 8q-18 -78 -41 -424l-45 15v147q-25 39 -185.5 62.5t-274.5 23.5q-14 -68 -15 -545v-40q336 0 424 32q14 41 21 88l43 4 q-2 -18 -24.5 -183t-29.5 -200l-38 17q4 86 4 137q-88 45 -400 45v-41q0 -492 15 -631q369 0 491 70q12 41 27.5 105.5t17.5 74.5l47 13q-10 -45 -35.5 -221.5t-31.5 -252.5l-43 9q0 92 -2 125q-106 18 -643 18q-152 0 -312 -8zM305 1677l98 160l158 -106l-102 -158z M743 1681l101 156l155 -106l-104 -156z" />
<glyph unicode="&#xec;" horiz-adv-x="901" d="M86 1739l80 157q68 -47 229.5 -151.5t175.5 -106.5l-24 -65q-51 25 -241.5 96.5t-219.5 69.5zM98 -8l8 43q96 6 218 28q10 109 10 666v121q0 432 -10 520q-63 12 -215 29l-11 43q78 -8 389 -8q246 0 316 8l-10 -43q-18 -2 -97.5 -13.5t-117.5 -15.5q-10 -51 -11 -530 v-127q0 -598 11 -650q51 -12 215 -28l10 -43q-90 8 -385 8q-197 0 -320 -8z" />
<glyph unicode="&#xed;" horiz-adv-x="901" d="M98 -8l8 43q96 6 218 28q10 109 10 666v121q0 432 -10 520q-63 12 -215 29l-11 43q78 -8 389 -8q246 0 316 8l-10 -43q-18 -2 -97.5 -13.5t-117.5 -15.5q-10 -51 -11 -530v-127q0 -598 11 -650q51 -12 215 -28l10 -43q-90 8 -385 8q-197 0 -320 -8zM334 1638 q14 2 176 106.5t229 151.5l78 -157q-29 2 -222.5 -72t-236.5 -94z" />
<glyph unicode="&#xee;" horiz-adv-x="901" d="M98 -8l8 43q96 6 218 28q10 109 10 666v121q0 432 -10 520q-63 12 -215 29l-11 43q78 -8 389 -8q246 0 316 8l-10 -43q-18 -2 -97.5 -13.5t-117.5 -15.5q-10 -51 -11 -530v-127q0 -598 11 -650q51 -12 215 -28l10 -43q-90 8 -385 8q-197 0 -320 -8zM180 1628 q41 35 138.5 128t121.5 122q244 -219 281 -248l-39 -49q-6 4 -61.5 34t-110.5 60l-74 41q-35 -14 -112.5 -64t-104.5 -71z" />
<glyph unicode="&#xef;" horiz-adv-x="901" d="M98 -8l8 43q96 6 218 28q10 109 10 666v121q0 432 -10 520q-63 12 -215 29l-11 43q78 -8 389 -8q246 0 316 8l-10 -43q-18 -2 -97.5 -13.5t-117.5 -15.5q-10 -51 -11 -530v-127q0 -598 11 -650q51 -12 215 -28l10 -43q-90 8 -385 8q-197 0 -320 -8zM104 1677l99 160 l157 -106l-102 -158zM543 1681l100 156l156 -106l-105 -156z" />
<glyph unicode="&#xf0;" horiz-adv-x="1925" d="M98 -8l8 43q139 8 213 28q14 49 15 605v47q-141 -4 -223 -19l22 92q25 -2 201 -2v76q0 451 -15 508q-96 18 -217 29l-4 43q61 -8 365 -8q29 0 201 4t245 4q381 0 578 -92q172 -80 254 -209t82 -279q0 -170 -66.5 -322.5t-196.5 -275.5t-346.5 -195.5t-490.5 -72.5 q-527 0 -625 -4zM567 678q0 -440 15 -565q104 -37 235 -37q141 0 273.5 42t241 121.5t174 212t65.5 296.5q0 293 -225 469q-109 84 -252.5 116.5t-348.5 32.5q-111 0 -163 -10q-14 -68 -15 -533v-37q287 0 408 17l-23 -98q-260 10 -385 12v-39z" />
<glyph unicode="&#xf1;" horiz-adv-x="1859" d="M82 -8l6 43q143 20 170 28q23 55 40 596t17 707q-78 16 -225 25l-8 43q23 0 198 5t269 9q31 -49 246 -320.5t245 -302.5q6 -6 206 -240.5t239 -267.5q0 940 -43 1053q-109 23 -207 29l-10 43q78 -8 305 -8q172 0 258 8l-8 -43q-8 -2 -66.5 -13.5t-89.5 -15.5 q-8 -27 -15 -95.5t-11.5 -124.5t-8.5 -133t-4 -81q-2 -27 -15.5 -509t-19.5 -529q-27 25 -182.5 203t-321 369.5t-172.5 199.5q-14 14 -232 279t-253 304q-6 -43 10.5 -591.5t34.5 -598.5q23 -8 223 -28l7 -43q-74 8 -304 8q-159 0 -278 -8zM666 1630q18 53 67 121t90 68 q31 0 146 -45q131 -51 182 -52q74 0 111 64l57 -12q-18 -55 -66.5 -115t-93.5 -60q-49 0 -155 46q-119 47 -160 47q-78 0 -121 -74z" />
<glyph unicode="&#xf2;" horiz-adv-x="1939" d="M113 692q0 319 245.5 546.5t653.5 227.5q174 0 307 -35.5t260 -130.5q119 -86 183.5 -223t64.5 -284q0 -371 -251 -598.5t-634 -227.5q-408 0 -633 230q-109 111 -152.5 227t-43.5 268zM348 778q0 -285 202 -506t492 -221q221 0 378 173t157 419q0 319 -190.5 532.5 t-450.5 213.5q-147 0 -277.5 -62.5t-220.5 -205t-90 -343.5zM604 1739l80 157q68 -47 229.5 -151.5t176.5 -106.5l-25 -65q-51 25 -241.5 96.5t-219.5 69.5z" />
<glyph unicode="&#xf3;" horiz-adv-x="1939" d="M113 692q0 319 245.5 546.5t653.5 227.5q174 0 307 -35.5t260 -130.5q119 -86 183.5 -223t64.5 -284q0 -371 -251 -598.5t-634 -227.5q-408 0 -633 230q-109 111 -152.5 227t-43.5 268zM348 778q0 -285 202 -506t492 -221q221 0 378 173t157 419q0 319 -190.5 532.5 t-450.5 213.5q-147 0 -277.5 -62.5t-220.5 -205t-90 -343.5zM852 1638q14 2 176 106.5t229 151.5l78 -157q-29 2 -222 -72t-236 -94z" />
<glyph unicode="&#xf4;" horiz-adv-x="1939" d="M113 692q0 319 245.5 546.5t653.5 227.5q174 0 307 -35.5t260 -130.5q119 -86 183.5 -223t64.5 -284q0 -371 -251 -598.5t-634 -227.5q-408 0 -633 230q-109 111 -152.5 227t-43.5 268zM348 778q0 -285 202 -506t492 -221q221 0 378 173t157 419q0 319 -190.5 532.5 t-450.5 213.5q-147 0 -277.5 -62.5t-220.5 -205t-90 -343.5zM719 1628q41 35 138 128t122 122q244 -219 281 -248l-39 -49q-6 4 -61.5 34t-110.5 60l-74 41q-35 -14 -113 -64t-104 -71z" />
<glyph unicode="&#xf5;" horiz-adv-x="1939" d="M113 692q0 319 245.5 546.5t653.5 227.5q174 0 307 -35.5t260 -130.5q119 -86 183.5 -223t64.5 -284q0 -371 -251 -598.5t-634 -227.5q-408 0 -633 230q-109 111 -152.5 227t-43.5 268zM348 778q0 -285 202 -506t492 -221q221 0 378 173t157 419q0 319 -190.5 532.5 t-450.5 213.5q-147 0 -277.5 -62.5t-220.5 -205t-90 -343.5zM643 1630q18 53 67.5 121t90.5 68q31 0 145 -45q131 -51 182 -52q74 0 111 64l57 -12q-18 -55 -66 -115t-93 -60q-49 0 -156 46q-117 47 -160 47q-78 0 -121 -74z" />
<glyph unicode="&#xf6;" horiz-adv-x="1939" d="M113 692q0 319 245.5 546.5t653.5 227.5q174 0 307 -35.5t260 -130.5q119 -86 183.5 -223t64.5 -284q0 -371 -251 -598.5t-634 -227.5q-408 0 -633 230q-109 111 -152.5 227t-43.5 268zM348 778q0 -285 202 -506t492 -221q221 0 378 173t157 419q0 319 -190.5 532.5 t-450.5 213.5q-147 0 -277.5 -62.5t-220.5 -205t-90 -343.5zM623 1677l98 160l158 -106l-103 -158zM1061 1681l100 156l156 -106l-105 -156z" />
<glyph unicode="&#xf7;" horiz-adv-x="1249" d="M152 625l16 129h928l-17 -109q-139 12 -454 8q-248 -1 -473 -28zM512 455l195 37l10 -181l-199 -37zM512 1112l195 37l10 -180l-199 -37z" />
<glyph unicode="&#xf8;" horiz-adv-x="1939" d="M113 692q0 319 245.5 546.5t653.5 227.5q319 0 520 -133q63 57 147 150l136 -33q-41 -27 -203 -174q102 -90 158.5 -218t56.5 -265q0 -371 -251 -598.5t-634 -227.5q-332 0 -530 142q-137 -156 -146 -166l-135 24q133 115 211 199q-229 200 -229 526zM348 778 q0 -246 160 -456q80 74 222 214t202 197q236 221 454 445q-90 100 -208.5 155.5t-241.5 55.5q-147 0 -277.5 -62.5t-220.5 -205t-90 -343.5zM563 256q201 -205 479 -205q221 0 378 173t157 419q0 258 -137 463q-174 -162 -439 -426q-39 -37 -197.5 -190.5t-240.5 -233.5z " />
<glyph unicode="&#xf9;" horiz-adv-x="1755" d="M90 1442q115 -8 346 -8q201 0 303 8l-10 -43q-147 -16 -213 -29q-10 -57 -10 -471v-272q0 -305 111.5 -443.5t293.5 -138.5q190 0 295 98q78 74 107.5 202t29.5 329v188q0 424 -10 508q-119 20 -223 29l-14 43q102 -8 331 -8q180 0 250 8l-12 -43q-16 -4 -65.5 -13.5 t-77.5 -15.5q-10 -51 -11 -342v-98q0 -41 2.5 -128t2.5 -124q0 -389 -201 -567q-162 -143 -428 -144q-307 0 -463 170t-156 451v319q0 367 -10 463q-53 12 -162 29zM512 1739l80 157q68 -47 229.5 -151.5t175.5 -106.5l-24 -65q-51 25 -241.5 96.5t-219.5 69.5z" />
<glyph unicode="&#xfa;" horiz-adv-x="1755" d="M90 1442q115 -8 346 -8q201 0 303 8l-10 -43q-147 -16 -213 -29q-10 -57 -10 -471v-272q0 -305 111.5 -443.5t293.5 -138.5q190 0 295 98q78 74 107.5 202t29.5 329v188q0 424 -10 508q-119 20 -223 29l-14 43q102 -8 331 -8q180 0 250 8l-12 -43q-16 -4 -65.5 -13.5 t-77.5 -15.5q-10 -51 -11 -342v-98q0 -41 2.5 -128t2.5 -124q0 -389 -201 -567q-162 -143 -428 -144q-307 0 -463 170t-156 451v319q0 367 -10 463q-53 12 -162 29zM821 1638q14 2 176 106.5t230 151.5l78 -157q-29 2 -222.5 -72t-236.5 -94z" />
<glyph unicode="&#xfb;" horiz-adv-x="1755" d="M90 1442q115 -8 346 -8q201 0 303 8l-10 -43q-147 -16 -213 -29q-10 -57 -10 -471v-272q0 -305 111.5 -443.5t293.5 -138.5q190 0 295 98q78 74 107.5 202t29.5 329v188q0 424 -10 508q-119 20 -223 29l-14 43q102 -8 331 -8q180 0 250 8l-12 -43q-16 -4 -65.5 -13.5 t-77.5 -15.5q-10 -51 -11 -342v-98q0 -41 2.5 -128t2.5 -124q0 -389 -201 -567q-162 -143 -428 -144q-307 0 -463 170t-156 451v319q0 367 -10 463q-53 12 -162 29zM668 1628q41 35 138 128t122 122q244 -219 280 -248l-39 -49q-6 4 -61 34t-111 60l-73 41q-35 -14 -113 -64 t-104 -71z" />
<glyph unicode="&#xfc;" horiz-adv-x="1755" d="M90 1442q115 -8 346 -8q201 0 303 8l-10 -43q-147 -16 -213 -29q-10 -57 -10 -471v-272q0 -305 111.5 -443.5t293.5 -138.5q190 0 295 98q78 74 107.5 202t29.5 329v188q0 424 -10 508q-119 20 -223 29l-14 43q102 -8 331 -8q180 0 250 8l-12 -43q-16 -4 -65.5 -13.5 t-77.5 -15.5q-10 -51 -11 -342v-98q0 -41 2.5 -128t2.5 -124q0 -389 -201 -567q-162 -143 -428 -144q-307 0 -463 170t-156 451v319q0 367 -10 463q-53 12 -162 29zM571 1677l99 160l157 -106l-102 -158zM1010 1681l100 156l156 -106l-105 -156z" />
<glyph unicode="&#xfd;" horiz-adv-x="1339" d="M-72 1442q70 -8 357 -8q225 0 282 8l-10 -43q-18 -4 -84.5 -13.5t-91.5 -15.5q70 -123 221.5 -354.5t171.5 -265.5q4 10 99.5 158.5t174 286.5t80.5 175q-49 12 -159 29l-6 43q61 -8 258 -8q154 0 247 8l-6 -43q-129 -27 -139 -29q-33 -10 -253 -322.5t-243 -379.5 q-8 -47 -8 -146v-78q0 -317 10 -381q10 -2 51.5 -8t87.5 -12t60 -8l4 -43q-86 8 -366 8q-166 0 -281 -8l10 43q119 12 180 28q10 39 11 388v65q0 82 -6 135q-14 45 -224.5 351.5t-275.5 367.5q-12 6 -38 11t-59.5 10.5t-45.5 7.5zM653 1638q14 2 176 106.5t230 151.5 l78 -157q-29 2 -222.5 -72t-236.5 -94z" />
<glyph unicode="&#xfe;" horiz-adv-x="1329" d="M98 -8l11 43q8 2 56 7t94 11t65 10q10 113 10 703v96q0 426 -10 508q-55 16 -215 29l-11 43q90 -8 357 -8q227 0 342 8l-11 -43q-6 0 -217 -29l-6 -223q348 0 484 -53q66 -27 109.5 -64t61 -74.5t23.5 -62.5t6 -45q0 -176 -141 -301q-166 -145 -451 -182l7 59 q63 10 117.5 31.5t107.5 59.5t85 103.5t32 151.5q0 166 -148 250q-96 57 -293 63q-4 -106 -4 -227v-86q0 -649 4 -707q20 -4 70.5 -9t109 -11t74.5 -8l10 -43q-111 8 -374 8q-240 0 -355 -8z" />
<glyph unicode="&#xff;" horiz-adv-x="1339" d="M-72 1442q70 -8 357 -8q225 0 282 8l-10 -43q-18 -4 -84.5 -13.5t-91.5 -15.5q70 -123 221.5 -354.5t171.5 -265.5q4 10 99.5 158.5t174 286.5t80.5 175q-49 12 -159 29l-6 43q61 -8 258 -8q154 0 247 8l-6 -43q-129 -27 -139 -29q-33 -10 -253 -322.5t-243 -379.5 q-8 -47 -8 -146v-78q0 -317 10 -381q10 -2 51.5 -8t87.5 -12t60 -8l4 -43q-86 8 -366 8q-166 0 -281 -8l10 43q119 12 180 28q10 39 11 388v65q0 82 -6 135q-14 45 -224.5 351.5t-275.5 367.5q-12 6 -38 11t-59.5 10.5t-45.5 7.5zM383 1677l98 160l158 -106l-102 -158z M821 1681l101 156l155 -106l-104 -156z" />
<glyph unicode="&#x152;" horiz-adv-x="2273" d="M113 700.5q0 305.5 246.5 535.5t623.5 230q123 0 262 -16q135 -16 164 -16q571 0 627 14q10 41 16 96l47 8q-18 -78 -41 -424l-45 15v147q-25 39 -192.5 62.5t-270.5 23.5q-12 -53 -12 -551v-34q109 0 249 9t175 21q8 31 20 88l43 4q-6 -16 -17 -95t-21.5 -172 t-14.5 -114l-39 17q4 86 4 139q-74 43 -399 43v-39q0 -528 14 -633q369 0 492 70q14 37 28.5 104.5t16.5 75.5l47 13q-10 -45 -35.5 -221.5t-32.5 -252.5l-43 9q0 92 -2 125q-39 6 -281.5 12t-334.5 6q-51 0 -190.5 -16.5t-258.5 -16.5q-432 0 -657 232q-188 196 -188 501.5 zM342 780q0 -281 208 -504t480 -223q184 0 266 49q8 49 9 594v152q0 307 -13 455q-10 10 -46 26.5t-123 34.5t-189 18q-246 0 -419 -155.5t-173 -446.5z" />
<glyph unicode="&#x153;" horiz-adv-x="2273" d="M113 700.5q0 305.5 246.5 535.5t623.5 230q123 0 262 -16q135 -16 164 -16q571 0 627 14q10 41 16 96l47 8q-18 -78 -41 -424l-45 15v147q-25 39 -192.5 62.5t-270.5 23.5q-12 -53 -12 -551v-34q109 0 249 9t175 21q8 31 20 88l43 4q-6 -16 -17 -95t-21.5 -172 t-14.5 -114l-39 17q4 86 4 139q-74 43 -399 43v-39q0 -528 14 -633q369 0 492 70q14 37 28.5 104.5t16.5 75.5l47 13q-10 -45 -35.5 -221.5t-32.5 -252.5l-43 9q0 92 -2 125q-39 6 -281.5 12t-334.5 6q-51 0 -190.5 -16.5t-258.5 -16.5q-432 0 -657 232q-188 196 -188 501.5 zM342 780q0 -281 208 -504t480 -223q184 0 266 49q8 49 9 594v152q0 307 -13 455q-10 10 -46 26.5t-123 34.5t-189 18q-246 0 -419 -155.5t-173 -446.5z" />
<glyph unicode="&#x178;" horiz-adv-x="1339" d="M-72 1442q70 -8 357 -8q225 0 282 8l-10 -43q-18 -4 -84.5 -13.5t-91.5 -15.5q70 -123 221.5 -354.5t171.5 -265.5q4 10 99.5 158.5t174 286.5t80.5 175q-49 12 -159 29l-6 43q61 -8 258 -8q154 0 247 8l-6 -43q-129 -27 -139 -29q-33 -10 -253 -322.5t-243 -379.5 q-8 -47 -8 -146v-78q0 -317 10 -381q10 -2 51.5 -8t87.5 -12t60 -8l4 -43q-86 8 -366 8q-166 0 -281 -8l10 43q119 12 180 28q10 39 11 388v65q0 82 -6 135q-14 45 -224.5 351.5t-275.5 367.5q-12 6 -38 11t-59.5 10.5t-45.5 7.5zM383 1677l98 160l158 -106l-102 -158z M821 1681l101 156l155 -106l-104 -156z" />
<glyph unicode="&#x2c6;" horiz-adv-x="1878" d="M668 1628q41 35 138 128t122 122q244 -219 280 -248l-39 -49q-6 4 -61 34t-111 60l-73 41q-35 -14 -113 -64t-104 -71z" />
<glyph unicode="&#x2dc;" horiz-adv-x="1878" d="M612 1630q18 53 67.5 121t90.5 68q31 0 145 -45q131 -51 183 -52q74 0 110 64l58 -12q-18 -55 -66.5 -115t-93.5 -60q-49 0 -156 46q-119 47 -159 47q-78 0 -121 -74z" />
<glyph unicode="&#x2000;" horiz-adv-x="948" />
<glyph unicode="&#x2001;" horiz-adv-x="1898" />
<glyph unicode="&#x2002;" horiz-adv-x="948" />
<glyph unicode="&#x2003;" horiz-adv-x="1898" />
<glyph unicode="&#x2004;" horiz-adv-x="632" />
<glyph unicode="&#x2005;" horiz-adv-x="473" />
<glyph unicode="&#x2006;" horiz-adv-x="315" />
<glyph unicode="&#x2007;" horiz-adv-x="315" />
<glyph unicode="&#x2008;" horiz-adv-x="235" />
<glyph unicode="&#x2009;" horiz-adv-x="378" />
<glyph unicode="&#x200a;" horiz-adv-x="104" />
<glyph unicode="&#x2010;" horiz-adv-x="921" d="M143 653l17 166h618l-26 -98q-82 0 -293.5 -22.5t-315.5 -45.5z" />
<glyph unicode="&#x2011;" horiz-adv-x="921" d="M143 653l17 166h618l-26 -98q-82 0 -293.5 -22.5t-315.5 -45.5z" />
<glyph unicode="&#x2012;" horiz-adv-x="921" d="M143 653l17 166h618l-26 -98q-82 0 -293.5 -22.5t-315.5 -45.5z" />
<glyph unicode="&#x2013;" horiz-adv-x="1024" d="M0 668l16 151h1008l-16 -131q-98 8 -375 8q-387 1 -633 -28z" />
<glyph unicode="&#x2014;" horiz-adv-x="2048" d="M0 668l16 151h2032l-16 -131q-90 8 -813 8q-988 1 -1219 -28z" />
<glyph unicode="&#x2018;" horiz-adv-x="471" d="M125 1540l55 -8q59 -293 168 -467l-196 -47q-2 53 -6.5 156.5t-9.5 193.5t-11 172z" />
<glyph unicode="&#x2019;" horiz-adv-x="471" d="M100 1018q76 236 82 522l191 -67q-39 -70 -217 -453z" />
<glyph unicode="&#x201a;" horiz-adv-x="471" d="M100 -248q78 248 82 522l176 -65q-121 -256 -202 -461z" />
<glyph unicode="&#x201c;" horiz-adv-x="716" d="M125 1540l55 -2q37 -231 154 -473l-182 -47q-2 53 -6.5 156.5t-9.5 193.5t-11 172zM385 1540l55 -2q37 -231 154 -473l-182 -47q-2 53 -6.5 156.5t-9.5 193.5t-11 172z" />
<glyph unicode="&#x201d;" horiz-adv-x="716" d="M106 1018q76 246 82 522l177 -65q-121 -256 -203 -461zM354 1018q78 248 82 522l176 -65q-121 -256 -202 -461z" />
<glyph unicode="&#x201e;" horiz-adv-x="716" d="M106 -248q78 248 82 522l177 -65q-121 -256 -203 -461zM354 -248q78 248 82 522l176 -65q-121 -256 -202 -461z" />
<glyph unicode="&#x2022;" horiz-adv-x="798" d="M211 846l305 94l72 -305l-322 -103z" />
<glyph unicode="&#x2026;" horiz-adv-x="2048" d="M221 164l225 41l9 -203l-226 -43zM903 164l225 41l9 -203l-226 -43zM1585 164l225 41l9 -203l-226 -43z" />
<glyph unicode="&#x202f;" horiz-adv-x="378" />
<glyph unicode="&#x2039;" horiz-adv-x="737" d="M162 745q16 12 115.5 93.5t176 145t93.5 79.5l20 -74q-59 -53 -235 -229q49 -47 130 -108.5t113 -82.5l-30 -147q-20 20 -184 158t-199 165z" />
<glyph unicode="&#x203a;" horiz-adv-x="737" d="M162 915l31 148q20 -20 184 -158.5t198 -165.5q-16 -12 -115.5 -93t-176 -144.5t-93.5 -79.5l-20 74q80 72 238 229q-133 120 -246 190z" />
<glyph unicode="&#x205f;" horiz-adv-x="473" />
<glyph unicode="&#x20ac;" horiz-adv-x="1183" d="M-33 520l51 113h129q0 8 -1 25.5t-1 25.5q0 29 5 82q-16 -2 -66.5 -6t-67.5 -6l50 112h96q47 272 223 436t432 164q127 0 281 -61q10 37 26 129l52 10q-20 -211 -25 -549l-55 15q0 90 -9 159q-29 88 -101.5 157t-199.5 69q-182 0 -303 -151.5t-137 -377.5h709l-45 -92 q-162 14 -469 10q-106 0 -197 -6q4 -82 14 -145h625l-45 -92q-160 14 -465 10q-63 0 -94 -2q59 -219 197.5 -354.5t302.5 -135.5q137 0 323 144l-20 -84q-184 -152 -398 -152q-242 0 -414.5 156t-213.5 414q-115 -9 -189 -17z" />
<glyph unicode="&#x2122;" horiz-adv-x="950" d="M35 1323q6 115 6 133h29l4 -31q29 -4 147 -4q141 0 158 2l4 29l33 4q-6 -10 -15 -65q-6 -43 -6 -72l-26 6v45q-14 8 -107 12v-114v-133l64 -9v-22q-86 4 -107 4q-14 0 -100 -4v22l57 9q4 37 4 141v110q-80 0 -108 -14l-6 -45zM395 1104l4 22l47 9q2 6 6.5 24.5t11.5 48 t13 54.5q6 33 18.5 78.5t12.5 50.5l-51 6v26q37 -2 88 -2q55 0 92 2l-6 -26l-41 -2q6 -16 41 -92t37 -82q49 88 80 172l-41 4l-5 26q35 -2 86 -2q47 0 82 2l-8 -26l-39 -2q63 -256 66 -260l43 -9l4 -22q-57 4 -88 4t-84 -4v22l43 9q-10 61 -19 94q-6 25 -14 59.5t-10 40.5 q-43 -100 -115 -233q-6 10 -57 118.5t-60 124.5q-12 -74 -28 -204l49 -9v-22q-49 4 -86 4q-27 0 -72 -4z" />
<glyph unicode="&#xe000;" horiz-adv-x="1440" d="M0 1440h1440v-1440h-1440v1440z" />
<glyph unicode="&#xfb01;" horiz-adv-x="2203" d="M98 -8l8 43q6 2 51.5 5t93.5 9t73 14q10 78 10 609v127q0 475 -10 571q-18 8 -218 29l-8 43q37 -2 176 -6q41 0 104.5 -1t78.5 -1q606 0 649 12q14 59 27 145l47 11q-31 -174 -35 -504l-47 16q0 96 -11 162q-49 45 -219 70.5t-284 25.5q-16 -45 -17 -549v-45 q340 0 432 29q8 27 29 121l43 6q-27 -209 -33 -457l-43 12q0 72 -10 175q-33 25 -168 38t-250 13v-62q0 -498 17 -590q74 -16 225 -28l8 -43q-143 8 -377 8q-199 0 -342 -8zM1401 -8l8 43q96 6 217 28q10 109 10 666v121q0 432 -10 520q-63 12 -215 29l-10 43q78 -8 389 -8 q246 0 315 8l-10 -43q-18 -2 -97 -13.5t-118 -15.5q-10 -51 -10 -530v-127q0 -598 10 -650q51 -12 215 -28l10 -43q-90 8 -385 8q-196 0 -319 -8z" />
<glyph unicode="&#xfb02;" horiz-adv-x="2508" d="M98 -8l8 43q6 2 51.5 5t93.5 9t73 14q10 78 10 609v127q0 475 -10 571q-18 8 -218 29l-8 43q37 -2 176 -6q41 0 104.5 -1t78.5 -1q606 0 649 12q14 59 27 145l47 11q-31 -174 -35 -504l-47 16q0 96 -11 162q-49 45 -219 70.5t-284 25.5q-16 -45 -17 -549v-45 q340 0 432 29q8 27 29 121l43 6q-27 -209 -33 -457l-43 12q0 72 -10 175q-33 25 -168 38t-250 13v-62q0 -498 17 -590q74 -16 225 -28l8 -43q-143 8 -377 8q-199 0 -342 -8zM1401 -8l8 43q164 10 217 28q10 113 10 689v118q0 418 -10 500q-113 20 -219 29l-6 43 q102 -8 354 -8q295 0 377 8l-10 -43q-25 -2 -113 -13.5t-129 -15.5q-10 -82 -10 -524v-74q0 -649 10 -706q330 0 490 104q20 45 73 233l49 9q-72 -317 -108 -674l-47 10q0 10 5 109.5t5 130.5q-135 12 -598 12q-233 0 -348 -8z" />
<glyph unicode="&#xfb03;" horiz-adv-x="3506" d="M2703 -8l8 43q96 6 218 28q10 109 10 666v121q0 432 -10 520q-63 12 -215 29l-11 43q78 -8 389 -8q246 0 316 8l-10 -43q-18 -2 -97.5 -13.5t-117.5 -15.5q-10 -51 -11 -530v-127q0 -598 11 -650q51 -12 215 -28l10 -43q-90 8 -385 8q-197 0 -320 -8zM1401 -8l8 43 q6 2 51.5 5t93.5 9t73 14q10 78 10 609v127q0 475 -10 571q-18 8 -218 29l-8 43q143 -8 359 -8q606 0 649 12q14 59 27 145l47 11q-31 -174 -35 -504l-47 16q0 96 -11 162q-49 45 -219 70.5t-284 25.5q-16 -45 -17 -549v-45q340 0 432 29q8 27 29 121l43 6 q-27 -209 -33 -457l-43 12q0 72 -10 175q-33 25 -168 38t-250 13v-62q0 -498 17 -590q74 -16 225 -28l8 -43q-143 8 -377 8q-199 0 -342 -8zM98 -8l8 43q6 2 51.5 5t93.5 9t73 14q10 78 10 609v127q0 475 -10 571q-18 8 -218 29l-8 43q143 -8 359 -8q606 0 649 12 q14 59 27 145l47 11q-31 -174 -35 -504l-47 16q0 96 -11 162q-49 45 -219 70.5t-284 25.5q-16 -45 -17 -549v-45q340 0 432 29q8 27 29 121l43 6q-27 -209 -33 -457l-43 12q0 72 -10 175q-33 25 -168 38t-250 13v-62q0 -498 17 -590q74 -16 225 -28l8 -43q-143 8 -377 8 q-199 0 -342 -8z" />
<glyph unicode="&#xfb04;" horiz-adv-x="3811" d="M2703 -8l8 43q164 10 218 28q10 113 10 689v118q0 418 -10 500q-113 20 -220 29l-6 43q102 -8 355 -8q295 0 376 8l-10 -43q-25 -2 -113 -13.5t-128 -15.5q-10 -82 -11 -524v-74q0 -649 11 -706q330 0 489 104q20 45 74 233l49 9q-72 -317 -109 -674l-47 10q0 10 5 109.5 t5 130.5q-135 12 -598 12q-233 0 -348 -8zM1401 -8l8 43q6 2 51.5 5t93.5 9t73 14q10 78 10 609v127q0 475 -10 571q-18 8 -218 29l-8 43q143 -8 359 -8q606 0 649 12q14 59 27 145l47 11q-31 -174 -35 -504l-47 16q0 96 -11 162q-49 45 -219 70.5t-284 25.5 q-16 -45 -17 -549v-45q340 0 432 29q8 27 29 121l43 6q-27 -209 -33 -457l-43 12q0 72 -10 175q-33 25 -168 38t-250 13v-62q0 -498 17 -590q74 -16 225 -28l8 -43q-143 8 -377 8q-199 0 -342 -8zM98 -8l8 43q6 2 51.5 5t93.5 9t73 14q10 78 10 609v127q0 475 -10 571 q-18 8 -218 29l-8 43q143 -8 359 -8q606 0 649 12q14 59 27 145l47 11q-31 -174 -35 -504l-47 16q0 96 -11 162q-49 45 -219 70.5t-284 25.5q-16 -45 -17 -549v-45q340 0 432 29q8 27 29 121l43 6q-27 -209 -33 -457l-43 12q0 72 -10 175q-33 25 -168 38t-250 13v-62 q0 -498 17 -590q74 -16 225 -28l8 -43q-143 8 -377 8q-199 0 -342 -8z" />
</font>
</defs>
</svg>
